<?xml version="1.0" encoding="UTF-8" standalone="no"?>
<svg
   xmlns:dc="http://purl.org/dc/elements/1.1/"
   xmlns:cc="http://creativecommons.org/ns#"
   xmlns:rdf="http://www.w3.org/1999/02/22-rdf-syntax-ns#"
   xmlns:svg="http://www.w3.org/2000/svg"
   xmlns="http://www.w3.org/2000/svg"
   id="svg3899"
   version="1.1"
   viewBox="0 0 158.03639 99.947261"
   height="377.75342"
   width="597.30286">
  <g
     transform="translate(-33.240734,-69.75553)"
     id="layer1">
    <g
       transform="translate(-90.843101,-52.78416)"
       id="g3747">
      <path
         style="stroke-width:0.26458332"
         d="m 126.72967,173.9687 c 0.0312,2.50965 0.52529,4.80427 1.48311,6.68178 0.68732,1.34724 2.85192,3.63549 4.04937,4.28036 0.63765,0.3434 0.88141,0.62889 0.77101,0.90278 -0.0888,0.22029 -0.45541,1.53159 -0.81494,2.91404 -0.85975,3.30596 -0.79522,7.88333 0.14883,10.58333 2.62746,7.51457 10.89673,12.7 20.25303,12.7 4.55212,0 8.58792,-1.51955 10.97607,-4.13256 0.70277,-0.76894 1.35136,-1.32445 1.44126,-1.23455 0.0899,0.0899 0.16598,0.53057 0.16898,0.97926 0.0152,2.12824 2.35323,4.79902 5.77484,6.59702 5.10662,2.68345 14.47408,4.73697 24.91114,5.46116 3.9271,0.27249 13.55207,0.12669 17.4625,-0.26458 9.0917,-0.90972 16.11808,-2.99282 19.28461,-5.71696 1.19472,-1.0278 2.13076,-2.67345 2.14096,-3.76412 0.005,-0.57657 0.0966,-0.53792 1.31051,0.55346 1.9206,1.72679 3.57656,2.19004 7.691,2.15284 2.62849,-0.0238 3.82732,-0.16724 5.84048,-0.70022 7.44116,-1.97005 13.35363,-6.06559 15.74839,-10.90889 0.99427,-2.01084 1.03301,-2.19059 1.03301,-4.75061 0,-1.46328 -0.0979,-2.97078 -0.21756,-3.35019 -0.2167,-0.68684 -0.21036,-0.69053 1.50689,-0.82837 6.60008,-0.52979 11.54576,-7.70409 11.53676,-16.73801 -4.7e-4,-0.49581 -0.0105,-0.9657 -0.0294,-1.41697 z"
         id="path3742-7" />
      <path
         style="fill:#e6e6e6;stroke-width:0.26458332"
         d="m 187.94819,125.19029 c -1.90328,0.0272 -3.83302,0.17611 -5.04052,0.43563 -7.96602,1.7121 -15.75404,6.5692 -20.61166,12.85454 -2.1695,2.80715 -3.59559,5.62916 -4.04317,8.00162 -0.1855,0.98327 -0.3991,1.75719 -0.4749,1.71979 -0.0757,-0.0374 -1.26908,-0.63255 -2.65152,-1.32291 -3.1441,-1.5701 -5.02821,-2.05209 -8.02122,-2.05209 -3.77203,0 -6.44649,0.90105 -9.86296,3.32281 -3.76482,2.66868 -7.4158,7.94515 -9.05113,13.08137 -1.71694,5.39256 -1.6186,10.698 0.26614,14.39241 0.68731,1.34724 2.85191,3.63549 4.04936,4.28035 0.63765,0.3434 0.88141,0.62889 0.77101,0.90279 -0.0888,0.22029 -0.45541,1.5316 -0.81493,2.91404 -0.19566,0.75233 -0.34085,1.57205 -0.44132,2.41897 H 271.4325 c 4.77579,-2.31037 8.04921,-8.42988 8.04188,-15.78095 -0.003,-3.70846 -0.49968,-6.05025 -1.8712,-8.83253 -1.9181,-3.89112 -5.12724,-6.4862 -9.35653,-7.56595 -2.01887,-0.51508 -6.36246,-0.51936 -9.03098,-0.009 -1.13045,0.21629 -2.07219,0.36513 -2.09289,0.33073 -0.0207,-0.0344 -0.24983,-0.63454 -0.50902,-1.33377 -0.93493,-2.52218 -4.39303,-5.49071 -8.59069,-7.37475 -5.68496,-2.55159 -14.21932,-4.00456 -19.97139,-3.39981 -4.95298,0.52074 -7.90184,1.6335 -10.0676,3.79927 -0.72342,0.72343 -1.35363,1.20041 -1.40043,1.05989 -0.0469,-0.14052 -0.82683,-1.58618 -1.73323,-3.21222 -5.89653,-10.57802 -12.98086,-16.47727 -22.02088,-18.33691 -1.10123,-0.22654 -2.97807,-0.32072 -4.88135,-0.29353 z"
         id="path3742-6" />
      <path
         d="m 196.09856,216.82899 c -10.43707,-0.72419 -19.80462,-2.77784 -24.91124,-5.46129 -3.42161,-1.798 -5.75945,-4.46881 -5.77461,-6.59705 -0.003,-0.44869 -0.0794,-0.88939 -0.16934,-0.97933 -0.0899,-0.0899 -0.73852,0.4656 -1.44129,1.23454 -2.38815,2.61302 -6.42386,4.13247 -10.97599,4.13247 -9.35629,0 -17.62568,-5.18543 -20.25314,-12.7 -0.94405,-2.7 -1.0083,-7.27738 -0.14855,-10.58334 0.35952,-1.38244 0.72632,-2.69377 0.81512,-2.91406 0.1104,-0.2739 -0.13336,-0.55929 -0.77101,-0.90269 -1.19745,-0.64486 -3.36245,-2.93317 -4.04976,-4.28041 -1.88474,-3.69441 -1.98271,-8.99986 -0.26576,-14.39242 1.63533,-5.13622 5.28602,-10.41261 9.05084,-13.08129 3.41647,-2.42176 6.09124,-3.32287 9.86327,-3.32287 2.99301,0 4.87696,0.48198 8.02105,2.05207 1.38244,0.69037 2.57553,1.2858 2.65129,1.32318 0.0758,0.0374 0.28952,-0.73652 0.47502,-1.71979 0.44757,-2.37245 1.87354,-5.19467 4.04304,-8.00181 4.85761,-6.28532 12.64589,-11.14245 20.6119,-12.85454 2.415,-0.51904 7.71939,-0.59482 9.92187,-0.14174 9.04001,1.85964 16.12442,7.75881 22.02094,18.33678 0.90641,1.62603 1.68633,3.0714 1.73318,3.21192 0.0468,0.14052 0.67705,-0.33639 1.40046,-1.05981 2.16576,-2.16576 5.11425,-3.27847 10.06723,-3.79921 5.75207,-0.60475 14.2869,0.84806 19.97186,3.39964 4.19766,1.88403 7.65549,4.8525 8.59042,7.37468 0.25919,0.69923 0.4882,1.29947 0.50889,1.33386 0.0207,0.0344 0.96255,-0.11444 2.093,-0.33073 2.66852,-0.51057 7.01197,-0.50608 9.03083,0.009 4.2293,1.07975 7.4386,3.67482 9.3567,7.56594 1.37152,2.78228 1.8676,5.12405 1.87109,8.83251 0.009,9.0339 -4.93632,16.20833 -11.53639,16.73812 -1.71725,0.13785 -1.72379,0.14144 -1.50709,0.82829 0.1197,0.37941 0.21764,1.88706 0.21764,3.35032 0,2.56003 -0.039,2.73941 -1.03328,4.75025 -2.39476,4.8433 -8.30708,8.93877 -15.74825,10.90882 -2.01316,0.53298 -3.21186,0.67677 -5.84035,0.70054 -4.11443,0.0372 -5.77027,-0.42636 -7.69086,-2.15315 -1.21388,-1.09138 -1.30538,-1.13001 -1.31078,-0.55344 -0.0102,1.09067 -0.94634,2.73652 -2.14107,3.76432 -3.16652,2.72414 -10.19267,4.80699 -19.28437,5.71671 -3.91044,0.39127 -13.53541,0.53716 -17.46251,0.26467 z"
         id="path3742"
         style="fill:#ffffff;stroke-width:0.26458332" />
    </g>
  </g>
</svg>
