<?xml version="1.0" encoding="UTF-8" standalone="no"?>
<svg
   xmlns:dc="http://purl.org/dc/elements/1.1/"
   xmlns:cc="http://creativecommons.org/ns#"
   xmlns:rdf="http://www.w3.org/1999/02/22-rdf-syntax-ns#"
   xmlns:svg="http://www.w3.org/2000/svg"
   xmlns="http://www.w3.org/2000/svg"
   id="svg3931"
   version="1.1"
   viewBox="0 0 132.94123 105.20983"
   height="397.64343"
   width="502.45502">
  <g
     transform="translate(-41.252597,-43.689721)"
     id="layer1">
    <g
       transform="translate(16.073709,-48.42432)"
       id="g3755">
      <path
         style="stroke-width:0.26458332"
         d="m 28.949203,144.17631 c -0.72221,2.68117 -1.12448,5.47756 -1.12448,8.26978 0,7.49926 3.20873,12.44092 8.84338,13.61984 0.986,0.2063 1.84245,0.42496 1.90325,0.48576 0.0608,0.0608 -0.0833,0.866 -0.31988,1.78955 -0.56967,2.22362 -0.4053,6.15597 0.34313,8.21449 2.5025,6.88308 10.66846,12.44565 21.77387,14.83268 2.35439,0.50605 3.56507,0.5967 7.9375,0.5917 4.46673,-0.005 5.43788,-0.0828 7.23418,-0.57929 4.32811,-1.1964 7.38006,-3.27566 8.80205,-5.99705 0.42055,-0.80484 0.83529,-1.46374 0.92139,-1.464 0.0861,-3.5e-4 0.30753,0.5055 0.49247,1.12397 1.50064,5.01821 6.2172,8.27977 13.66067,9.44748 0.860787,0.13504 3.946517,0.20191 6.856937,0.14831 6.01925,-0.1109 9.50819,-0.69152 14.43788,-2.40243 10.83697,-3.7611 16.30398,-10.03169 14.38362,-16.49822 -0.22817,-0.76837 -0.36539,-1.44639 -0.30489,-1.50689 0.0604,-0.0604 0.4195,0.13386 0.79788,0.4315 2.4887,1.95761 6.39299,2.61874 9.417,1.59525 4.06279,-1.37507 7.61949,-4.89397 9.33381,-9.23458 0.48562,-1.22961 0.59248,-2.03394 0.6041,-4.54907 0.0138,-3.01014 -0.001,-3.08533 -0.97928,-5.06533 -1.23994,-2.50995 -3.24691,-4.43889 -6.2389,-5.9955 l -2.14922,-1.11776 0.77308,-1.06711 c 1.00918,-1.39314 1.51685,-3.15382 1.57716,-5.07308 z"
         id="path3814" />
      <path
         style="fill:#ececec;stroke:none;stroke-width:0.26499999;stroke-miterlimit:4;stroke-dasharray:none;stroke-opacity:1"
         d="m 79.69999,94.760883 c -2.37385,0.0197 -4.84388,0.32798 -6.78821,0.90331 -9.19318,2.72024 -15.79632,8.450957 -18.45417,16.016077 -0.73902,2.10349 -0.91965,6.03743 -0.37466,8.15815 0.57607,2.24167 0.57504,2.24468 -0.56172,1.6738 -2.77061,-1.39139 -5.54385,-1.81778 -8.20725,-1.26245 -9.06113,1.8893 -16.99431,14.43623 -16.99431,26.87794 0,6.18643 2.18557,10.63026 6.11332,12.65918 h 120.89649 c 0.0754,-0.6451 0.10312,-1.43864 0.10853,-2.61018 0.0138,-3.01013 -6.5e-4,-3.08534 -0.97876,-5.06532 -1.23993,-2.50997 -3.2469,-4.43889 -6.23889,-5.9955 l -2.14922,-1.11776 0.77307,-1.06712 c 3.29755,-4.55213 1.26431,-13.01786 -4.36562,-18.17667 -4.75818,-4.36001 -10.63031,-4.90327 -16.32665,-1.50998 -0.85901,0.51171 -1.65646,0.93069 -1.7725,0.93069 -0.11604,0 0.29688,-1.01235 0.91777,-2.24948 2.15697,-4.29781 2.22489,-8.1175 0.21807,-12.25971 -0.83296,-1.71931 -3.34556,-4.4605 -5.15059,-5.61878 -4.34249,-2.78658 -9.9178,-3.05934 -14.35829,-0.7028 -1.71728,0.91134 -4.71238,3.56001 -5.75159,5.08599 -0.34631,0.50852 -0.69719,0.92504 -0.7798,0.92604 -0.0826,9.9e-4 -0.36236,-0.68253 -0.62166,-1.51928 -0.97948,-3.16063 -2.78266,-6.13333 -5.1816,-8.54263 -2.68363,-2.695217 -5.31498,-4.187257 -8.89971,-5.045687 -1.43749,-0.34423 -3.22571,-0.50313 -5.07205,-0.48783 z"
         id="path3819-7" />
      <path
         style="fill:#ffffff;stroke:none;stroke-width:0.26499999;stroke-miterlimit:4;stroke-dasharray:none;stroke-opacity:1"
         d="m 99.94587,191.3366 c -7.44347,-1.16771 -12.1599,-4.42969 -13.66054,-9.44791 -0.18494,-0.61846 -0.40672,-1.12419 -0.49282,-1.12385 -0.0861,2.7e-4 -0.50064,0.65914 -0.92119,1.46399 -1.42199,2.72139 -4.47407,4.8009 -8.80219,5.99729 -1.79629,0.49654 -2.7675,0.57429 -7.23422,0.57914 -4.37243,0.005 -5.58312,-0.0855 -7.9375,-0.59153 -11.10542,-2.38703 -19.27134,-7.94989 -21.77385,-14.83297 -0.74842,-2.05852 -0.91256,-5.99058 -0.3429,-8.21421 0.2366,-0.92354 0.38045,-1.72892 0.31965,-1.78971 -0.0608,-0.0608 -0.91727,-0.27933 -1.90328,-0.48563 -5.63465,-1.17892 -8.84337,-6.12081 -8.84337,-13.62008 0,-12.44171 7.93314,-24.98871 16.99427,-26.87801 2.6634,-0.55533 5.43668,-0.12865 8.20729,1.26274 1.13676,0.57088 1.13781,0.56775 0.56174,-1.67392 -0.54499,-2.12072 -0.36428,-6.055 0.37474,-8.15849 2.65785,-7.56512 9.26083,-13.29576 18.45401,-16.015997 3.45659,-1.02281 8.57448,-1.20193 11.86017,-0.41511 3.58473,0.85843 6.21623,2.35028 8.89986,5.045497 2.39894,2.4093 4.20195,5.38189 5.18143,8.54252 0.2593,0.83675 0.53901,1.52054 0.62158,1.51955 0.0826,-0.001 0.43347,-0.41787 0.77978,-0.92639 1.03921,-1.52598 4.03457,-4.17452 5.75185,-5.08586 4.44049,-2.35654 10.01557,-2.08357 14.35807,0.70301 1.80503,1.15828 4.31769,3.89915 5.15066,5.61846 2.00682,4.14221 1.93886,7.96211 -0.21811,12.25992 -0.62089,1.23713 -1.03395,2.24933 -0.91791,2.24933 0.11604,0 0.91381,-0.41867 1.77282,-0.93038 5.69634,-3.39329 11.56813,-2.85034 16.32631,1.50967 5.62993,5.15881 7.66324,13.62454 4.36569,18.17667 l -0.77298,1.06708 2.14909,1.11808 c 2.99199,1.55661 4.99914,3.48533 6.23907,5.9953 0.97811,1.97998 0.99265,2.05522 0.97882,5.06535 -0.0116,2.51514 -0.11838,3.31971 -0.60401,4.54931 -1.71431,4.34062 -5.27105,7.85955 -9.33384,9.23462 -3.024,1.02348 -6.92827,0.36191 -9.41697,-1.59571 -0.37838,-0.29763 -0.73742,-0.49169 -0.79786,-0.43125 -0.0605,0.0604 0.0768,0.73857 0.30497,1.50694 1.92035,6.46653 -3.54644,12.7371 -14.3834,16.49819 -4.9297,1.71091 -8.41894,2.29149 -14.43818,2.40238 -2.91042,0.0536 -5.99595,-0.013 -6.85675,-0.14803 z"
         id="path3819" />
    </g>
  </g>
</svg>
