<?xml version="1.0" encoding="UTF-8" standalone="no"?>
<svg
   xmlns:dc="http://purl.org/dc/elements/1.1/"
   xmlns:cc="http://creativecommons.org/ns#"
   xmlns:rdf="http://www.w3.org/1999/02/22-rdf-syntax-ns#"
   xmlns:svg="http://www.w3.org/2000/svg"
   xmlns="http://www.w3.org/2000/svg"
   id="svg3835"
   version="1.1"
   viewBox="0 0 164.53423 67.534889"
   height="67.534889mm"
   width="164.53423mm">
  <g
     transform="translate(-27.054317,-50.345651)"
     id="layer1">
    <g
       transform="translate(23.094335,-31.939012)"
       id="g3815">
      <path
         style="fill:#e6e6e6;stroke-width:0.26458332"
         d="m 62.397957,138.03703 c -7.93042,-0.55376 -14.55963,-2.06969 -17.68862,-4.04494 -1.4996,-0.94666 -2.69781,-2.42541 -3.05875,-3.7749 -0.17295,-0.64666 -0.38087,-1.17573 -0.46206,-1.17573 -0.0812,0 -0.3489,0.56555 -0.59494,1.25678 -0.92851,2.60859 -2.88367,4.45245 -5.99901,5.65753 -2.08568,0.80678 -7.04635,0.99275 -10.0807,0.37792 -4.85441,-0.98364 -8.932659,-3.00276 -11.97709,-5.92981 -2.8546933,-2.74464 -3.6925623,-5.0256 -3.1114953,-8.47054 0.7089753,-4.20328 4.6597903,-8.05039 11.7340653,-11.42606 5.62001,-2.68173 10.29701,-3.82891 15.52403,-3.80777 3.0877,0.0125 3.78279,0.0975 5.12784,0.62683 0.85578,0.33681 2.01664,1.02857 2.57969,1.53724 1.15491,1.0434 1.18523,0.96415 0.63144,-1.65035 -1.72664,-8.151573 2.8095,-16.486856 10.57874,-19.438706 2.37987,-0.90421 6.12248,-1.04301 8.51651,-0.31585 6.39237,1.94162 11.06067,8.691733 12.79292,18.497886 0.18637,1.05503 0.42363,1.91823 0.52724,1.91823 0.10362,0 0.2663,-0.48717 0.36151,-1.08259 0.27148,-1.69774 2.37235,-3.63752 5.06065,-4.67261 8.73876,-3.364723 24.617903,-2.638093 33.066153,1.5131 1.16416,0.57204 2.55245,1.40319 3.08509,1.84701 1.07134,0.8927 2.07428,2.71827 2.07428,3.77565 v 0.68432 l 1.25677,-0.38632 c 2.43397,-0.74818 8.70095,-2.18624 11.84011,-2.71691 14.85626,-2.51139 25.49993,-0.0928 28.76321,6.53581 0.76014,1.54405 0.86232,2.00231 0.8369,3.75307 -0.1048,7.21621 -7.4543,13.94302 -18.22303,16.6791 -9.45373,2.40197 -20.80317,1.51129 -32.54375,-2.55397 -1.89177,-0.65503 -3.61818,-1.24122 -3.83645,-1.30266 -0.23588,-0.0664 -0.61364,0.23697 -0.93125,0.74778 -1.86545,3.00024 -12.872026,5.9138 -26.717703,7.07245 -4.73995,0.39665 -15.19848,0.5437 -19.1323,0.26901 z"
         id="path3772-4" />
      <path
         style="stroke-width:0.26458332"
         d="m 62.397957,144.38707 c -7.93042,-0.55376 -14.559626,-2.06969 -17.688618,-4.04494 -1.499605,-0.94666 -2.697811,-2.42541 -3.058747,-3.77491 -0.172951,-0.64665 -0.380879,-1.17572 -0.462063,-1.17572 -0.08118,0 -0.348906,0.56555 -0.59494,1.25677 -0.928507,2.6086 -2.883667,4.45246 -5.999014,5.65754 -2.085679,0.80678 -7.046346,0.99275 -10.080694,0.37791 -4.854411,-0.98363 -8.932663,-3.00275 -11.977096,-5.92981 -2.8546933,-2.74463 -3.6925623,-5.02559 -3.1114953,-8.47054 0.7089753,-4.20327 4.6597903,-8.05038 11.7340713,-11.42605 5.620002,-2.68173 10.297004,-3.82891 15.524025,-3.80777 3.087706,0.0125 3.782788,0.0975 5.127845,0.62683 0.855781,0.33681 2.016641,1.02857 2.579687,1.53724 1.154909,1.0434 1.18523,0.96415 0.631436,-1.65035 -1.726639,-8.15157 2.809505,-16.486883 10.57874,-19.438741 2.379875,-0.90421 6.122488,-1.04301 8.516509,-0.31585 6.392376,1.94162 11.060674,8.691771 12.792927,18.497921 0.18637,1.05503 0.42363,1.91823 0.527246,1.91823 0.103619,0 0.266295,-0.48717 0.361508,-1.08259 0.271481,-1.69774 2.372347,-3.63752 5.060649,-4.67261 8.738756,-3.36472 24.617917,-2.63809 33.066197,1.5131 1.16416,0.57204 2.55245,1.40319 3.08509,1.84701 1.07134,0.8927 2.07428,2.71827 2.07428,3.77565 v 0.68432 l 1.25677,-0.38632 c 2.43397,-0.74818 8.70095,-2.18624 11.84011,-2.71691 14.85626,-2.51139 25.49993,-0.0928 28.76321,6.53581 0.76014,1.54405 0.86232,2.00231 0.8369,3.75307 -0.1048,7.2162 -7.4543,13.94302 -18.22303,16.6791 -9.45373,2.40197 -20.80317,1.51129 -32.54375,-2.55397 -1.89177,-0.65504 -3.61818,-1.24123 -3.83647,-1.30266 -0.23588,-0.0664 -0.61364,0.23696 -0.93125,0.74777 -1.86546,3.00025 -12.872056,5.91381 -26.717729,7.07245 -4.739947,0.39665 -15.198487,0.54371 -19.132304,0.26902 z"
         id="path3772-1" />
      <path
         style="fill:#ffffff;stroke-width:0.26458332"
         d="m 62.397957,141.21205 c -7.93042,-0.55376 -14.559627,-2.06969 -17.688618,-4.04494 -1.499606,-0.94666 -2.697811,-2.42541 -3.058748,-3.77491 -0.17295,-0.64665 -0.380878,-1.17572 -0.462063,-1.17572 -0.08118,0 -0.348906,0.56555 -0.594939,1.25677 -0.928508,2.6086 -2.883667,4.45246 -5.999014,5.65754 -2.085679,0.80678 -7.046346,0.99275 -10.080694,0.37791 -4.854411,-0.98363 -8.932661,-3.00275 -11.977092,-5.92981 -2.8546933,-2.74463 -3.6925623,-5.02559 -3.1114953,-8.47054 0.7089753,-4.20327 4.6597893,-8.05038 11.7340673,-11.42605 5.620002,-2.68173 10.297004,-3.82891 15.524025,-3.80777 3.087706,0.0125 3.782788,0.0975 5.127845,0.62683 0.855781,0.33681 2.016641,1.02857 2.579687,1.53724 1.154909,1.0434 1.18523,0.96415 0.631436,-1.65035 -1.726639,-8.15157 2.809505,-16.486871 10.57874,-19.438721 2.379874,-0.90421 6.122488,-1.04301 8.516509,-0.31585 6.392376,1.94162 11.060673,8.691748 12.792927,18.497901 0.18637,1.05503 0.423629,1.91823 0.527246,1.91823 0.103618,0 0.266295,-0.48717 0.361508,-1.08259 0.271481,-1.69774 2.372346,-3.63752 5.060648,-4.67261 8.738756,-3.36472 24.617898,-2.63809 33.066158,1.5131 1.16416,0.57204 2.55245,1.40319 3.08509,1.84701 1.07134,0.8927 2.07428,2.71827 2.07428,3.77565 v 0.68432 l 1.25677,-0.38632 c 2.43397,-0.74818 8.70095,-2.18624 11.84011,-2.71691 14.85626,-2.51139 25.49993,-0.0928 28.76321,6.53581 0.76014,1.54405 0.86232,2.00231 0.8369,3.75307 -0.1048,7.2162 -7.4543,13.94302 -18.22303,16.6791 -9.45373,2.40197 -20.80317,1.51129 -32.54375,-2.55397 -1.89177,-0.65504 -3.61818,-1.24123 -3.83646,-1.30266 -0.23588,-0.0664 -0.61364,0.23696 -0.93125,0.74777 -1.86545,3.00025 -12.872026,5.91381 -26.717699,7.07245 -4.739947,0.39665 -15.198487,0.54371 -19.132304,0.26902 z"
         id="path3772" />
    </g>
  </g>
</svg>
