<?xml version="1.0" encoding="UTF-8" standalone="no"?>
<svg
   xmlns:dc="http://purl.org/dc/elements/1.1/"
   xmlns:cc="http://creativecommons.org/ns#"
   xmlns:rdf="http://www.w3.org/1999/02/22-rdf-syntax-ns#"
   xmlns:svg="http://www.w3.org/2000/svg"
   xmlns="http://www.w3.org/2000/svg"
   id="svg3867"
   version="1.1"
   viewBox="0 0 119.89522 84.471796"
   height="319.26349"
   width="453.14731">
  <g
     transform="translate(-50.799411,-71.445659)"
     id="layer1">
    <g
       transform="translate(-95.012689,-130.60346)"
       id="g3739">
      <path
         style="stroke-width:0.26458332"
         d="m 148.69789,242.49592 c -0.29411,3.09515 0.3895,6.26826 2.05414,9.53224 l 0.81649,1.60145 -0.68833,1.0144 c -1.66157,2.44845 -1.64215,5.82103 0.0527,9.21856 2.02946,4.06828 5.17264,7.20991 9.24698,9.24233 1.85947,0.92757 2.49324,1.10719 4.26486,1.20975 1.28237,0.0742 2.46643,-0.006 3.0856,-0.21084 1.21493,-0.40097 3.11769,-2.0971 3.56567,-3.17862 0.44086,-1.06435 0.69419,-0.98996 0.86093,0.25322 0.19012,1.41742 1.33523,3.84223 2.46703,5.22345 1.04124,1.27069 3.5168,3.11626 5.53248,4.1243 2.76856,1.38454 6.11323,2.25354 12.30313,3.19722 1.90986,0.29117 11.10171,0.13602 13.93299,-0.23513 13.08417,-1.71518 21.77056,-6.48475 21.78316,-11.96103 0.003,-1.43154 0.35331,-1.44073 0.77876,-0.0207 0.21889,0.73057 0.8452,1.61826 1.85261,2.62568 1.29835,1.29836 1.80469,1.60755 3.44681,2.10633 5.63525,1.71166 12.50345,-1.21754 14.92365,-6.36498 0.85748,-1.82377 1.05669,-3.7494 0.6165,-5.96656 l -0.21291,-1.07177 2.46187,0.0134 c 1.69691,0.009 2.87234,-0.13076 3.78426,-0.45061 2.9143,-1.02223 5.55982,-3.95451 6.77632,-7.51118 0.82227,-2.40406 0.88334,-6.60553 0.1292,-8.90436 -0.42194,-1.28616 -1.08244,-2.46355 -1.92392,-3.48661 z"
         id="path3744-2" />
      <path
         style="fill:#ececec;stroke-width:0.26458332"
         d="m 208.12412,204.69769 c -0.29666,0.004 -0.5952,0.0141 -0.89504,0.0289 -6.91535,0.34244 -13.07823,3.13658 -18.20406,8.25324 -2.93138,2.92613 -4.44866,5.41626 -4.76818,7.82485 l -0.17002,1.28054 -1.28984,-1.01957 c -6.80022,-5.37526 -18.45057,-4.22975 -27.11721,2.6665 -2.149,1.71001 -4.55708,4.67659 -5.64255,6.951 -2.27299,4.76261 -2.09266,9.70224 0.5426,14.86937 l 0.81649,1.60145 -0.68833,1.01441 c -0.87739,1.2929 -1.28133,2.84486 -1.22215,4.52066 h 110.3607 c 1.01097,-1.22539 1.84118,-2.68821 2.38487,-4.27778 0.82228,-2.40406 0.88332,-6.60553 0.12919,-8.90436 -1.05412,-3.21332 -3.57691,-5.76617 -6.77323,-6.85488 -1.99021,-0.6779 -6.02289,-0.80041 -8.43876,-0.25632 -0.78522,0.17688 -1.46489,0.28436 -1.50999,0.23926 -0.0451,-0.0451 0.10184,-0.61277 0.32659,-1.26193 1.56249,-4.51293 -3.76258,-10.91009 -9.40614,-11.29957 -1.60347,-0.11066 -2.45637,0.0559 -4.28293,0.83664 -0.32459,0.13874 -0.69379,-0.27404 -1.56631,-1.75028 -5.73141,-9.69708 -13.38945,-14.59735 -22.5857,-14.46217 z"
         id="path3744-7" />
      <path
         d="m 192.0875,279.89375 c -6.1899,-0.94368 -9.53457,-1.81293 -12.30313,-3.19748 -2.01568,-1.00804 -4.49155,-2.85364 -5.53279,-4.12433 -1.1318,-1.38122 -2.277,-3.80572 -2.46712,-5.22314 -0.16674,-1.24318 -0.42001,-1.31772 -0.86087,-0.25337 -0.44798,1.08152 -2.35056,2.77766 -3.56549,3.17863 -0.61917,0.20434 -1.80307,0.28535 -3.08544,0.21111 -1.77162,-0.10256 -2.40528,-0.28232 -4.26474,-1.20989 -4.07434,-2.03242 -7.2179,-5.17438 -9.24735,-9.24266 -1.69487,-3.39754 -1.71407,-6.76984 -0.0525,-9.21828 l 0.68845,-1.0145 -0.81677,-1.60148 c -2.63526,-5.16713 -2.81548,-10.1068 -0.54249,-14.86941 1.08547,-2.27441 3.49355,-5.24082 5.64255,-6.95083 8.66664,-6.89626 20.31684,-8.04193 27.11706,-2.66667 l 1.28996,1.01966 0.16986,-1.28052 c 0.31952,-2.40859 1.837,-4.8988 4.76838,-7.82493 5.12583,-5.11666 11.28889,-7.91081 18.20424,-8.25325 9.59494,-0.47515 17.5641,4.4235 23.48039,14.4334 0.87252,1.47624 1.24199,1.88904 1.56658,1.7503 1.82656,-0.78073 2.67934,-0.94732 4.28282,-0.83666 5.64357,0.38948 10.96881,6.78645 9.40632,11.29938 -0.22475,0.64916 -0.37176,1.21718 -0.32668,1.26226 0.0451,0.0451 0.72442,-0.0627 1.50964,-0.23958 2.41588,-0.54409 6.44891,-0.42163 8.43913,0.25627 3.19631,1.08871 5.71887,3.64189 6.77299,6.85521 0.75413,2.29883 0.69324,6.49992 -0.12903,8.90398 -1.21651,3.55666 -3.86195,6.48907 -6.77625,7.51129 -0.91191,0.31986 -2.08774,0.45987 -3.78466,0.45065 l -2.46173,-0.0134 0.21278,1.0717 c 0.44019,2.21716 0.24134,4.14272 -0.61616,5.9665 -2.42018,5.14743 -9.28839,8.07682 -14.92364,6.36516 -1.64212,-0.49878 -2.14848,-0.80825 -3.44684,-2.10661 -1.00741,-1.00742 -1.63374,-1.89508 -1.85262,-2.62566 -0.42546,-1.42006 -0.77538,-1.41074 -0.77868,0.0208 -0.0126,5.47628 -8.69922,10.24614 -21.78339,11.96132 -2.83128,0.37115 -12.02291,0.52621 -13.93277,0.23504 z"
         id="path3744"
         style="fill:#ffffff;stroke-width:0.26458332" />
    </g>
  </g>
</svg>
