<?xml version="1.0" encoding="UTF-8" standalone="no"?>
<svg
   xmlns:dc="http://purl.org/dc/elements/1.1/"
   xmlns:cc="http://creativecommons.org/ns#"
   xmlns:rdf="http://www.w3.org/1999/02/22-rdf-syntax-ns#"
   xmlns:svg="http://www.w3.org/2000/svg"
   xmlns="http://www.w3.org/2000/svg"
   width="465.56833"
   height="157.5293"
   viewBox="0 0 123.18162 41.679626"
   version="1.1">
  <path
     d="m 113.70319,32.818 q -1.6002,0 -2.4892,-0.8636 -0.889,-0.8636 -0.889,-2.2098 0,-1.4732 0.9906,-3.175 0.9906,-1.7272 2.54,-2.8702 1.5494,-1.1684 3.048,-1.1684 0.7874,0 1.3208,0.4064 0.5334,0.381 0.5334,1.2954 0,1.2192 -0.9398,2.3114 -0.9398,1.0668 -2.4384,1.7526 -1.4732,0.6858 -3.0226,0.8636 -0.0508,0.254 -0.0508,0.5842 0,0.6604 0.3556,1.3208 0.381,0.6604 1.6002,0.6604 1.5494,0 3.1496,-1.2446 1.6256,-1.27 2.6162,-3.1496 l 0.508,0.4064 q -1.016,2.286 -2.921,3.683 -1.8796,1.397 -3.9116,1.397 z m -1.0668,-4.5974 q 0.9144,-0.1016 2.032,-0.7366 1.143,-0.635 1.9304,-1.5494 0.7874,-0.9398 0.7874,-1.8288 0,-0.2794 -0.1016,-0.381 -0.1016,-0.1016 -0.3302,-0.1016 -0.7366,0 -1.6256,0.7112 -0.8636,0.6858 -1.6002,1.7526 -0.7366,1.0668 -1.0922,2.1336 z m -5.32526,3.9878 q -0.9652,0 -1.4986,-0.4826 -0.5334,-0.4826 -0.5334,-1.27 0,-0.3302 0.1016,-0.762 0.127,-0.4318 0.254,-0.8636 0.3556,-1.1684 0.3556,-1.7272 0,-0.508 -0.254,-0.7366 -0.254,-0.254 -0.635,-0.254 -1.3462,0 -2.7178,1.7018 -1.3716,1.6764 -2.946403,4.2672 -1.0922,0 -1.651,-0.7366 l 0.2286,-0.635 q 1.4986,-3.6322 1.4986,-5.3848 0.2032,-0.2286 0.584203,-0.4064 0.381,-0.2032 0.7366,-0.2032 0.4318,0 0.6604,0.2032 0.2286,0.2032 0.2286,0.5588 0,0.6858 -0.4318,2.2606 1.143,-1.524 2.3622,-2.4892 1.2446,-0.9652 2.4384,-0.9652 1.016,0 1.5748,0.7112 0.5588,0.6858 0.5588,1.651 0,0.5588 -0.1524,1.0668 -0.127,0.508 -0.4064,1.143 -0.4318,1.0668 -0.4318,1.6002 0,0.381 0.1778,0.5588 0.1778,0.1778 0.4318,0.1778 0.8382,0 1.8034,-1.143 0.9906,-1.1684 1.778,-2.7432 l 0.4318,0.3556 q -0.9144,2.1082 -2.032,3.3274 -1.0922,1.2192 -2.5146,1.2192 z m -16.309183,0.3048 q -1.0414,0 -1.524,-0.6858 -0.4572,-0.6858 -0.4572,-1.7018 0,-1.0668 0.4318,-2.2098 0.4572,-1.143 1.1684,-1.905 0.7112,-0.762 1.4478,-0.762 0.3048,0 0.7874,0.2032 0.1524,-1.1684 0.8128,-1.9304 0.6858,-0.762 1.905,-0.762 1.016,0 1.4986,0.5842 0.4826,0.5588 0.4826,1.4732 0,0.889 -0.4826,2.032 -0.4572,1.143 -1.1938,2.286 0.3048,0.1524 0.7112,0.1524 0.7112,0 1.524,-0.4572 0.8128,-0.4826 1.2446,-1.4478 l 0.4572,0.3302 q -0.5334,1.2192 -1.4478,1.8542 -0.889,0.635 -1.8542,0.635 -0.5842,0 -1.27,-0.2286 -0.9398,1.1176 -2.0574,1.8288 -1.1176,0.7112 -2.1844,0.7112 z m 4.0132,-3.9116 q 0.635,-0.9398 1.0414,-1.9558 0.4318,-1.016 0.4318,-1.8288 0,-1.1176 -0.7112,-1.1176 -0.3302,0 -0.6858,0.3302 -0.3556,0.3302 -0.5842,0.889 -0.2286,0.5334 -0.2286,1.1938 0,0.5842 0.2032,1.3462 0.2032,0.7366 0.5334,1.143 z m -3.0988,2.6162 q 0.4572,0 1.1176,-0.508 0.6604,-0.508 1.3208,-1.2954 -1.4478,-1.27 -1.524,-3.7338 -0.3048,0.1524 -0.7366,0.9398 -0.4318,0.7874 -0.7366,1.7526 -0.3048,0.9652 -0.3048,1.6764 0,1.1684 0.8636,1.1684 z m -7.11121,2.6924 q -1.2192,0 -2.5654,-0.4826 -1.3208,-0.4826 -3.2004,-1.3462 l -0.8636,-0.381 q -1.905,1.3716 -3.3782,1.3716 -0.7874,0 -1.397,-0.3302 -0.5842,-0.3302 -0.9144,-0.8636 -0.3302,-0.508 -0.3302,-1.016 0,-0.635 0.508,-1.0414 0.508,-0.4064 1.651,-0.4064 1.2192,0 3.5814,0.635 2.159,-2.159 4.7752,-6.3246 -1.6256,0.0762 -4.191,0.4318 0.0508,-1.1938 1.1176,-1.6764 1.0922,-0.4826 2.8956,-0.4826 0.4064,0 1.1684,0.0508 1.9558,-3.3274 2.8448,-5.588 -0.8636,-0.254 -2.032,-0.6858 -1.9558,-0.7112 -3.1496,-0.9906 -1.1938,-0.3048 -1.9812,-0.3048 -1.3208,0 -2.0574,0.7874 -0.7366,0.762 -0.7366,2.6162 0.0254,0.127 0.0762,0.5334 0.0762,0.4064 0.1524,0.5588 -1.8796,-0.3302 -1.8796,-2.0066 0,-1.7272 1.3208,-2.6416 1.3462,-0.9144 3.8862,-0.9144 1.3462,0 2.5146,0.2286 1.1938,0.2286 2.7686,0.6604 1.27,0.3556 2.159,0.5334 0.889,0.1778 1.7526,0.1778 0.8382,0 1.27,-0.1016 -0.889,0.889 -1.6002,1.2446 -1.2192,2.8448 -3.1496,6.0706 0.6858,0.0508 1.016,0.1016 1.3716,0.1016 1.8796,0.1016 -0.4318,0.5842 -0.8382,0.8382 -0.381,0.2286 -0.9906,0.3048 -0.5842,0.0762 -1.9304,0.1016 -2.7432,4.318 -5.3594,6.8326 2.0066,0.6096 3.5052,0.9652 1.4986,0.3302 2.5654,0.3302 1.143,0 2.286,-0.5588 -0.5588,1.4732 -1.2954,2.0574 -0.7112,0.6096 -1.8542,0.6096 z m -10.2108,-1.6764 q 0.4064,0 0.8636,-0.2794 0.4826,-0.254 1.2446,-0.8382 -0.9906,-0.381 -1.6002,-0.5588 -0.6096,-0.2032 -1.0922,-0.2032 -0.508,0 -0.762,0.2032 -0.254,0.1778 -0.254,0.4572 0,0.4318 0.4572,0.8128 0.4826,0.4064 1.143,0.4064 z m -12.27891,-0.0254 q -0.9652,0 -1.4986,-0.4826 -0.5334,-0.4826 -0.5334,-1.27 0,-0.3302 0.1016,-0.762 0.127,-0.4318 0.254,-0.8636 0.3556,-1.1684 0.3556,-1.7272 0,-0.508 -0.254,-0.7366 -0.254,-0.254 -0.635,-0.254 -1.3462,0 -2.7178,1.7018 -1.3716,1.6764 -2.9464,4.2672 -1.0922,0 -1.651,-0.7366 l 0.2286,-0.635 q 1.4986,-3.6322 1.4986,-5.3848 0.2032,-0.2286 0.5842,-0.4064 0.381,-0.2032 0.7366,-0.2032 0.4318,0 0.6604,0.2032 0.2286,0.2032 0.2286,0.5588 0,0.6858 -0.4318,2.2606 1.143,-1.524 2.3622,-2.4892 1.2446,-0.9652 2.4384,-0.9652 1.016,0 1.5748,0.7112 0.5588,0.6858 0.5588,1.651 0,0.5588 -0.1524,1.0668 -0.127,0.508 -0.4064,1.143 -0.4318,1.0668 -0.4318,1.6002 0,0.381 0.1778,0.5588 0.1778,0.1778 0.4318,0.1778 0.8382,0 1.8034,-1.143 0.9906,-1.1684 1.778,-2.7432 l 0.4318,0.3556 q -0.9144,2.1082 -2.032,3.3274 -1.0922,1.2192 -2.5146,1.2192 z m -14.29504,0.6096 q -1.6002,0 -2.4892,-0.8636 -0.889,-0.8636 -0.889,-2.2098 0,-1.4732 0.9906,-3.175 0.9906,-1.7272 2.54,-2.8702 1.5494,-1.1684 3.048,-1.1684 0.7874,0 1.3208,0.4064 0.5334,0.381 0.5334,1.2954 0,1.2192 -0.9398,2.3114 -0.9398,1.0668 -2.4384,1.7526 -1.4732,0.6858 -3.0226,0.8636 -0.0508,0.254 -0.0508,0.5842 0,0.6604 0.3556,1.3208 0.381,0.6604 1.6002,0.6604 1.5494,0 3.1496,-1.2446 1.6256,-1.27 2.6162,-3.1496 l 0.508,0.4064 q -1.016,2.286 -2.921,3.683 -1.8796,1.397 -3.9116,1.397 z m -1.0668,-4.5974 q 0.9144,-0.1016 2.032,-0.7366 1.143,-0.635 1.9304,-1.5494 0.7874,-0.9398 0.7874,-1.8288 0,-0.2794 -0.1016,-0.381 -0.1016,-0.1016 -0.3302,-0.1016 -0.7366,0 -1.6256,0.7112 -0.8636,0.6858 -1.6002,1.7526 -0.7366,1.0668 -1.0922,2.1336 z M 46.837757,2.64581 c -2.85045,0 -6.16646,0.79048 -9.94823,2.37092 0,0.28223 0.19762,0.635 0.59273,1.05833 0.42333,0.39511 0.76196,0.59273 1.01596,0.59273 0.14111,0 0.5505,-0.16931 1.22783,-0.50798 1.524,-0.79022 3.00536,-1.35477 4.44469,-1.69344 -1.91911,4.26155 -3.542,8.25482 -4.86843,11.98015 -1.32646,3.72533 -3.07619,8.91844 -5.2493,15.5789 -0.16796,0.48577 -1.5353,1.93195 -1.5353,2.41173 0,0.59628 1.15152,3.53778 1.44022,4.26693 l 0.83044,-2.34456 -0.20929,-0.54726 c -0.0523,-0.13688 0.6904,-0.49144 0.6904,-0.49144 0.10149,-0.0423 0.54725,0.77411 0.54725,0.77411 l -0.61702,0.42788 -0.81855,2.51096 c 1.13677,-0.19776 4.12636,-2.90422 4.12636,-2.90422 0,0 -0.38439,-2.23522 -0.21032,-3.68607 l 3.16415,-11.55175 h 0.25424 c 1.778,0 3.95076,-0.24009 6.51899,-0.71986 2.59644,-0.508 4.98149,-1.49556 7.1546,-2.96312 2.17311,-1.46755 3.25975,-3.55592 3.25975,-6.26525 0,-1.72155 -0.59286,-3.20343 -1.77819,-4.44521 -1.18533,-1.27 -2.69499,-2.22927 -4.52944,-2.87838 -1.80622,-0.64911 -3.64087,-0.9741 -5.50354,-0.9741 z m 0.59273,1.48208 c 2.14489,0.0565 3.96539,0.60633 5.46116,1.65055 1.49578,1.04423 2.24328,2.54025 2.24328,4.48758 0,1.89089 -0.64895,3.51377 -1.94717,4.86843 -1.27,1.35467 -2.92118,2.39885 -4.95318,3.13263 -2.00378,0.73377 -4.13409,1.17096 -6.39186,1.31207 2.032,-7.02734 3.89444,-12.17748 5.58777,-15.45126 z m -24.14821,28.65036 q -1.4224,0 -2.21262,-0.76764 -0.79022,-0.76765 -0.79022,-1.96427 0,-1.30951 0.88053,-2.82222 0.88053,-1.53529 2.25778,-2.55129 1.37724,-1.03858 2.70933,-1.03858 0.69991,0 1.17404,0.36125 0.47414,0.33866 0.47414,1.15146 0,1.08374 -0.83538,2.05458 -0.83538,0.94827 -2.16747,1.55787 -1.30951,0.6096 -2.68675,0.76764 -0.0452,0.22578 -0.0452,0.51929 0,0.58702 0.31609,1.17404 0.33867,0.58703 1.4224,0.58703 1.37725,0 2.79965,-1.10631 1.44497,-1.12889 2.32551,-2.79965 l 0.45155,0.36125 q -0.90311,2.032 -2.59644,3.27377 -1.67076,1.24178 -3.47698,1.24178 z m -0.94827,-4.08658 q 0.8128,-0.0903 1.80623,-0.65475 1.016,-0.56445 1.71591,-1.37725 0.69991,-0.83537 0.69991,-1.6256 0,-0.24835 -0.0903,-0.33866 -0.0903,-0.0903 -0.29351,-0.0903 -0.65476,0 -1.44498,0.63217 -0.76765,0.6096 -1.4224,1.55787 -0.65476,0.94827 -0.97085,1.89653 z m -17.38524,4.13174 q -1.083732,0 -1.693332,-0.6096 -0.6096,-0.58703 -0.6096,-1.73849 0,-0.92569 0.361245,-2.41582 0.383822,-1.51272 0.970844,-3.09316 -0.587022,-0.2032 -0.8128,-0.29351 v -0.69991 q 0.270934,0.0452 0.587022,0.13546 0.112889,0.0226 0.225778,0.0452 0.135467,0.0226 0.293513,0.0452 0.99342,-2.50614 2.07715,-4.22205 1.10632,-1.71591 1.85138,-1.71591 0.24836,0 0.45156,0.18062 0.2032,0.18062 0.2032,0.4064 0,0.42898 -0.67734,1.69334 -0.65475,1.24177 -1.71591,3.09315 l -0.54186,0.94827 q 1.15146,0.2032 2.07715,0.2032 1.17405,0 2.91254,-0.33867 0.8128,-2.19004 1.85137,-4.22204 1.06116,-2.032 2.07716,-3.29636 1.016,-1.26435 1.69333,-1.26435 0.42898,0 0.67734,0.49671 0.27093,0.47413 0.27093,1.10631 0,1.016 -0.67733,2.55129 -0.67734,1.53529 -1.85138,2.98026 -1.15147,1.4224 -2.48356,2.19005 -0.4064,0.97084 -0.72249,2.61902 -0.31609,1.6256 -0.31609,2.52871 2.00943,-5.26062 4.58329,-5.26062 0.97085,0 1.46756,0.65475 0.51929,0.63218 0.51929,1.53529 0,0.8128 -0.54187,2.12231 -0.0452,0.11289 -0.22578,0.63218 -0.18062,0.51929 -0.18062,0.90311 0,0.38383 0.15805,0.56445 0.18062,0.15804 0.45155,0.15804 0.49671,0 1.15147,-0.49671 0.67733,-0.51929 1.30951,-1.35467 0.65475,-0.83537 1.08373,-1.78364 l 0.42898,0.4064 q -0.79022,1.80622 -2.00942,2.98027 -1.19662,1.15146 -2.52871,1.15146 -0.83538,0 -1.30951,-0.45155 -0.47414,-0.42898 -0.47414,-1.12889 0,-0.29351 0.0903,-0.72249 0.11289,-0.42898 0.22578,-0.83538 0.0226,-0.11289 0.18062,-0.67733 0.15805,-0.56445 0.15805,-1.016 0,-0.97085 -0.79022,-0.97085 -0.79023,0 -1.37725,0.90312 -0.56444,0.90311 -1.26435,2.57386 -0.54187,1.35467 -0.92569,1.98685 -0.38383,0.65475 -0.85796,0.65475 -0.58702,0 -0.85795,-0.99342 -0.27094,-0.99342 -0.27094,-1.80622 -0.92569,1.37724 -2.14489,2.16746 -1.2192,0.79023 -2.52871,0.79023 z m 7.96996,-9.25689 q 0.92569,-0.8128 1.71591,-1.94169 0.8128,-1.15147 1.26435,-2.21262 0.47414,-1.06116 0.47414,-1.60303 -0.27094,0.0677 -0.90311,0.88054 -0.63218,0.8128 -1.33209,2.09973 -0.69991,1.28693 -1.2192,2.77707 z m -7.3152,8.128 q 1.12889,0 2.25778,-0.97085 1.15146,-0.99342 1.98684,-2.70933 0.29351,-1.44498 0.69991,-2.61902 -1.35467,0.27093 -2.55129,0.27093 -1.15146,0 -2.46098,-0.24835 -1.12888,2.52871 -1.12888,4.53813 0,0.94827 0.24835,1.35467 0.27093,0.38382 0.94827,0.38382 z" />
</svg>
