<?xml version="1.0" encoding="utf-8"?>
<!-- Generator: Adobe Illustrator 16.0.0, SVG Export Plug-In . SVG Version: 6.00 Build 0)  -->
<!DOCTYPE svg PUBLIC "-//W3C//DTD SVG 1.1//EN" "http://www.w3.org/Graphics/SVG/1.1/DTD/svg11.dtd">
<svg version="1.1" id="Layer_1" xmlns="http://www.w3.org/2000/svg" xmlns:xlink="http://www.w3.org/1999/xlink" x="0px" y="0px"
	 width="482.343px" height="67.291px" viewBox="0 0 482.343 67.291" enable-background="new 0 0 482.343 67.291"
	 xml:space="preserve">
<g id="XMLID_1_">
	<g>
		<path fill="#FFFFFF" d="M93.207,16.061c-0.55,0-3.47,0.11-8.75,0.33c0,0.22-0.11,0.33-0.33,0.33c0,0.22,0.11,0.33,0.33,0.33
			l-0.33,1.68v9.45c5.61,0.44,8.98,0.66,10.1,0.66c2.03-1.29,3.04-4.2,3.04-8.75C95.786,17.4,94.437,16.061,93.207,16.061z
			 M81.786,28.51v-13.8c0.05-0.44,0.27-0.66,0.65-0.66h6.08c1.56,0,4.03-0.12,7.4-0.37c0.6,1.31,1.94,3.12,4.02,5.42
			c-0.65,6.49-1.43,9.74-2.34,9.74c-1.56,1.561-2.57,2.34-3.04,2.34c-4.93,0-9.3-0.33-13.1-0.99L81.786,28.51z"/>
		<path fill="#2E3192" d="M108.687,29.871c-0.32,0-1.45,1.34-3.36,4.02h0.37c2.21-1.859,3.32-2.87,3.32-3.04v-0.979H108.687z
			 M106.017,11.67c-0.3,0-1.42,1.91-3.36,5.75l0.32,1.68h0.33c0.41-1.7,1.54-3.5,3.37-5.42h0.66v0.37c-2,2.52-3.45,5.2-4.36,8.05
			v3.7h0.33c1.18-4.41,2.75-7.66,4.73-9.74v-2.38C108.036,13.351,107.366,12.681,106.017,11.67z M108.036,17.75
			c-1.46,1.94-3.25,5.86-5.38,11.75v0.37h0.32c2.36-5.4,4.15-8.1,5.39-8.1v-4.02H108.036z M108.366,27.15
			c-2.25,2.52-4.61,6-7.07,10.44c2.03-0.96,3.04-2.3,3.04-4.03l4.35-5.05v-1.36H108.366z M104.336,9.98
			c-1.64,2.36-2.66,4.15-3.04,5.38c0.22,0.47,0.33,0.81,0.33,1.03c2.19-2.63,3.31-4.64,3.37-6.04L104.336,9.98z M108.366,22.8
			c-0.85,0.6-4.22,6.2-10.11,16.8h0.37c1.09-0.159,1.64-0.489,1.64-0.979c-0.22-0.47-0.33-0.811-0.33-1.03
			c3.76-5.89,6.67-10.04,8.75-12.45C108.477,24.24,108.366,23.46,108.366,22.8z M100.966,14.38c0-0.52,0.89-2.32,2.67-5.38
			l-0.66-0.33h-0.32c-1.07,0.71-2.2,2.05-3.37,4.02c0.6,1.13,1.05,1.69,1.35,1.69H100.966z M98.256,11.67c0.3,0,1.53-1.34,3.7-4.03
			h-0.33c-1.13,0.69-2.25,1.81-3.37,3.37V11.67z M99.937,6.291c-0.22,0-1.45,1.68-3.69,5.05h0.33l4.39-4.73l-0.7-0.32H99.937z
			 M96.576,37.59c-0.33,0-0.9,0.67-1.69,2.01h1.69c2.24-2.899,4.16-5.93,5.75-9.08v-0.33h-0.37
			C98.366,34.39,96.576,36.85,96.576,37.59z M95.256,35.25c0,0.49-0.9,1.83-2.71,4.02h1.68c0-0.319,0.78-1.56,2.35-3.689v-0.33
			H95.256z M94.227,11.34h0.33c0.33,0,1.45-1.34,3.37-4.03V6.98C96.096,8.49,94.856,9.94,94.227,11.34z M91.187,39.27l3.37-4.35
			h-0.98c-1.48,0.93-2.71,2.38-3.7,4.35H91.187z M94.227,5.96c-1.17,0-3.08,1.9-5.71,5.71h1.36c0-1.45,1.45-3.14,4.35-5.06V5.96z
			 M88.187,39.27c0.33,0,1.44-1.34,3.33-4.02v-0.33h-0.98c-1.35,1.18-2.25,2.63-2.71,4.35H88.187z M96.576,5.96
			c-0.61,0-2.62,1.9-6.04,5.71h2.01l4.4-5.38V5.96H96.576z M91.517,5.96c-2.41,1.91-4.08,3.82-5.01,5.71h1.68
			c0-1.45,1.24-3.36,3.7-5.71H91.517z M85.477,39.27h0.66c0.25,0,1.15-1.34,2.71-4.02v-0.33h-0.33
			C86.497,36.861,85.477,38.321,85.477,39.27z M84.457,11.67l0.69,0.33c1.13-1.95,2.58-3.85,4.36-5.71V5.96h-0.66
			C88.687,6.451,87.216,8.351,84.457,11.67z M81.786,12h1.68c0-0.72,1.45-2.73,4.36-6.04h-0.99c-2.08,1.28-3.77,3.08-5.05,5.38V12z
			 M82.106,60.47c1.35-1.18,2.02-2.3,2.02-3.37C82.786,58.17,82.106,59.291,82.106,60.47z M82.437,38.951
			c0.17-1.351,1.07-2.69,2.71-4.03c0.44,0.05,0.66,0.271,0.66,0.66c-1.56,1.39-2.34,2.52-2.34,3.37h0.33l3.37-4.03l-1.69-0.37h-1.68
			c-0.33,0-1.34,1.47-3.04,4.4H82.437z M79.767,23.791c0,1.91,0.11,4.94,0.33,9.08c5.26,0.46,10.08,0.689,14.46,0.689l2.39,0.33
			l4.35-4.72v-3c0-1.81,0.11-4.16,0.33-7.07l-4.03-6.41c-7.97,0.44-13.91,0.66-17.83,0.66V23.791z M84.126,6.291
			c-1.73,1.39-3.29,3.19-4.69,5.38V12h0.66c1.51-2.17,2.96-4.07,4.36-5.71H84.126z M79.437,60.47h0.99
			c1.56-2.46,2.9-4.149,4.03-5.05h-2.02l0.33,0.7c-0.22,0-1.33,1.34-3.33,4.02V60.47z M80.426,55.09l-2.67,5.38l4.03-4.72
			c0-0.44-0.22-0.66-0.66-0.66H80.426z M74.716,22.431c-0.9,1.01-1.36,1.58-1.36,1.68h0.33l1.36-1.68H74.716z M74.017,22.101
			l4.4-4.02v-1.36c-3.04,3.04-4.62,4.83-4.73,5.38H74.017z M72.707,16.391c0-0.57,2.46-3.83,7.39-9.78v-0.32h-0.33
			c0,0.27-2.46,3.08-7.39,8.42v1.68H72.707z M72.006,18.4v1.03h0.37c0-0.79,1.9-3.15,5.71-7.06c0.55-1.48,2.11-3.62,4.68-6.41h-0.66
			C81.316,6.5,77.946,10.65,72.006,18.4z M72.006,27.15v1.03h0.37c1.94-3.53,3.96-5.67,6.04-6.41v-2.01h-0.66v0.33
			c0.22,0.44,0.33,0.78,0.33,1.03C77.346,21.121,75.316,23.13,72.006,27.15z M71.676,34.92c3.75-5.18,6-7.77,6.74-7.77v-2.01
			c-1.07,0.85-3.32,3.77-6.74,8.75V34.92z M74.716,60.47h1.36l3.36-5.05v-0.66h-0.69L74.716,60.47z M71.676,31.88l6.74-8.75V22.8
			c-4.49,3.75-6.74,6.55-6.74,8.38V31.88z M72.006,12c0.24,0.46,0.37,0.8,0.37,1.02l6.69-7.06h-0.32
			C77.076,6.811,74.826,8.82,72.006,12z M71.676,38.951c3.64-4.99,5.89-7.91,6.74-8.76v-1.68h-0.66
			c-4.05,4.99-6.08,8.351-6.08,10.11V38.951z M78.417,14.05c-4.28,3.7-6.41,6.38-6.41,8.05v0.33c2.03-2.22,4.16-4.79,6.41-7.72
			V14.05z M71.346,44c3.81-6.521,6.27-9.78,7.4-9.78v-2.67C73.816,37.031,71.346,41.18,71.346,44z M71.346,51.39h0.66
			c6.74-10.76,10.1-16.479,10.1-17.17h-0.32c-3.48,3.42-6.96,9.04-10.44,16.84V51.39z M71.346,11.67c0-0.55,1.69-2.34,5.05-5.38
			h-0.32c-3.37,2.57-5.06,4.25-5.06,5.05v0.33H71.346z M79.066,34.22c-4.46,5.891-7.03,10.271-7.72,13.15v0.649h0.66
			c0-1.97,2.7-6.46,8.09-13.47v-0.33H79.066z M78.747,41.991c-4.93,7.72-7.4,11.979-7.4,12.77v0.33c2.63-2.85,5.2-6.22,7.72-10.11
			h0.37v-2.989H78.747z M69.006,60.47h4.03c4.27-4.649,6.4-7.569,6.4-8.75v-0.66h-0.37c-1.12,1.131-3.24,4.04-6.36,8.75h-1.03
			v-0.319c2.82-4.17,5.41-7.65,7.76-10.44v-2.71l-10.43,13.8V60.47z M74.017,5.96c-1.83,1.28-3.39,3.08-4.68,5.38h0.66
			c0-0.91,1.57-2.7,4.72-5.38H74.017z M67.977,11.01c0.33,0,0.89-0.67,1.69-2.01h-0.33c-0.33,0-0.89,0.67-1.69,2.01H67.977z
			 M70.687,5.96c-0.3,0-1.42,1.12-3.36,3.37v0.32h0.32c0-0.27,1.13-1.5,3.37-3.69H70.687z M66.957,8.3h0.37
			c0-0.38,0.56-1.17,1.68-2.34h-0.7c-0.55,0.44-1,0.65-1.35,0.65V8.3z M66.626,58.13c0.3,0,0.86-0.56,1.68-1.68v-0.33h-1.68V58.13z
			 M66.957,60.47c1.47-1.12,2.83-2.7,4.06-4.72h-0.33c-0.63,0-1.98,1.46-4.06,4.39v0.33H66.957z M65.636,11.67v-6.74
			c0-0.44,0.33-0.66,0.99-0.66c5.72,0,17.17,0.11,34.34,0.33c5.83,5.62,8.75,8.53,8.75,8.75v0.33c0,6.41,0.22,12.24,0.66,17.5
			c0,0.41-3.59,3.78-10.76,10.11c-1.51-0.22-2.74-0.33-3.7-0.33c-3.53,0-8.59-0.22-15.16-0.66l-0.33,0.66v12.77h0.33
			c3.37,0,5.05,0.461,5.05,1.36l-0.33,0.66l0.33,0.7c-0.27,3.58-0.72,5.38-1.35,5.38h-5.02c-0.24,0-0.37-0.11-0.37-0.33
			c-0.65,0.22-0.98,0.44-0.98,0.66l-1.69-0.33h-10.43c-0.47,0-0.7-0.22-0.7-0.66v-5.75c0-0.38,1.58-0.84,4.73-1.36
			c0.21-1.229,0.32-2.229,0.32-3v-3.689c0-6.8,0.13-17.68,0.37-32.66h0.33l-0.33-0.66l0.33-0.7
			C67.426,12.641,65.636,12.081,65.636,11.67z"/>
		<path fill="#FFFFFF" d="M63.626,3.621V9c0,0.22-0.13,0.33-0.37,0.33l0.37,0.65v3.37l-0.37,0.7c4.05,0,6.08,0.33,6.08,0.99v3.36
			c0,8.47-0.11,19.68-0.33,33.65l-5.75,1.36l0.37,0.649v8.101l-0.37,0.649l0.7,0.37h23.21v-0.37c0-1.229,0.11-4.359,0.33-9.399
			c-2.91-0.22-4.92-0.55-6.04-0.99l1.31-10.43c5.67,0.21,10.16,0.319,13.48,0.319h1.35l2.02,0.33c0.57,0,4.61-3.58,12.11-10.76
			c0.22-0.41,0.33-0.86,0.33-1.36v-17.5c-4.13-4.43-7.83-7.91-11.09-10.43h-36.36C64.286,2.59,63.957,2.931,63.626,3.621z
			 M62.267,0.25c17.34,0.22,30.35,0.33,39.03,0.33h1.36l11.42,10.76v1.35c0,4.5,0.12,11.22,0.37,20.18l-13.15,11.79
			c-7.39-0.22-12.78-0.33-16.15-0.33l-0.69,0.979v3.74l-0.33,1.69c0.68,0,1.02,0.109,1.02,0.319c0.22,0,0.33-0.1,0.33-0.319
			c1.92,0.22,3.5,0.54,4.73,0.979l-0.33,2.01c0,1.921-0.12,5.74-0.37,11.471l-0.66,0.319h-27.28c-0.43,0-0.65-0.21-0.65-0.649V51.72
			c0-0.6,1.9-1.05,5.71-1.35V33.56c0-3.47,0.11-9.09,0.33-16.84h-0.33c-3.81,0-5.71-0.33-5.71-0.99v-3.36
			c0-0.25,0.11-0.37,0.33-0.37l-0.33-0.66C60.917,3.94,61.366,0.25,62.267,0.25z"/>
	</g>
	<g>
	</g>
</g>
<g id="XMLID_2_">
	<g>
		<path fill="#2E3192" d="M163.656,15.201v0.33h0.33c1.59-0.55,2.38-1.1,2.38-1.64l-0.7-0.37
			C164.906,14.641,164.236,15.201,163.656,15.201z M162.306,10.851l-3,3.36l0.65,0.33c1.4-0.68,2.63-1.7,3.7-3.04L162.306,10.851z
			 M164.356,12.53c-2.49,1.83-3.74,2.83-3.74,3l0.7,0.37h0.33c0.27,0,1.29-1.01,3.04-3.04v-0.33H164.356z M161.977,52.581
			c-1.4,0-2.41,1.13-3.04,3.37c2.13-1.59,3.49-2.38,4.06-2.38v-0.33C162.997,52.8,162.656,52.581,161.977,52.581z M157.946,12.86
			l0.66,0.33c0.3,0,1.31-1.02,3.04-3.04V9.49h-0.33L157.946,12.86z M157.286,11.831c2-1.12,3-2.24,3-3.37l-0.98-0.65
			c-0.36,0.63-1.37,1.75-3.04,3.36C156.946,11.17,157.286,11.391,157.286,11.831z M162.997,57.27c-4.93,2.98-7.39,4.561-7.39,4.721
			h0.66c1.56,0,3.91-1.57,7.06-4.721H162.997z M156.596,7.811c0,0.43-0.9,1.56-2.67,3.36h0.32c1.4-0.68,2.63-1.69,3.7-3.04v-0.32
			H156.596z M153.556,38.781v-0.7c-0.44,0.06-0.66,0.29-0.66,0.7H153.556z M153.227,61.991c7.06-3.971,10.99-6.431,11.79-7.391
			c0-0.359-0.35-0.699-1.03-1.029l-11.75,8.42H153.227z M154.247,7.811c-1.75,2.02-2.87,3.04-3.36,3.04v0.65
			c1.23,0,2.8-1.23,4.72-3.69H154.247z M151.866,41.451h1.36l1.02-0.66c-0.22-0.38-0.32-0.83-0.32-1.35
			C153.566,39.441,152.876,40.111,151.866,41.451z M150.556,40.791c2-3.25,3-4.94,3-5.05h-0.66c0,0.439-0.91,1.67-2.71,3.7v1.35
			H150.556z M151.207,25.63c-0.49,0-1.05,1.02-1.68,3.04C150.046,28.67,150.606,27.661,151.207,25.63z M152.236,32.701l-2.05,3.37
			v0.33h0.37c0-0.28,0.67-1.511,2.01-3.7H152.236z M148.536,61.661h1.32c1.07,0,3.54-1.57,7.43-4.72h-1.68
			c-4.33,2.68-6.68,4.02-7.07,4.02V61.661z M149.526,25.63h-0.33v0.7h0.33V25.63z M148.167,35.741h0.7c2.9-3.48,4.36-5.83,4.36-7.07
			C152.896,28.73,151.207,31.09,148.167,35.741z M147.846,11.5h1.35c0.27,0,1.51-1.23,3.7-3.69l-0.66-0.33h-1.03
			C149.646,8.76,148.526,10.11,147.846,11.5z M147.846,7.48l-3.04,4.02h1.35c0.41,0,1.42-1.23,3.04-3.69V7.48H147.846z
			 M144.477,36.071h1.68c1.23-0.96,3.59-4.091,7.07-9.41v-0.7h-0.99c-0.96,3.62-3.55,6.77-7.76,9.45V36.071z M148.536,57.27
			c-1.69,0.521-3.27,1.87-4.72,4.061h3.04c3.86-2.71,6.09-4.061,6.7-4.061v-0.329h-0.33c-1.73,0-4.19,1.229-7.4,3.699h-0.33v-0.66
			c0-0.52,1.13-1.319,3.37-2.38v-0.33H148.536z M142.457,12.201c1.76-1.42,2.99-2.78,3.7-4.07V7.48c-0.79,0.54-2.03,2-3.7,4.35
			V12.201z M147.846,31.02c-1.07,0-2.98,1.681-5.72,5.051h0.33c3.59-2.9,5.39-4.46,5.39-4.681V31.02z M140.446,12.201
			c0.44,0,1.67-1.35,3.7-4.07V7.48h-1.36c-0.22,0-1.11,1.34-2.67,4.02v0.7H140.446z M144.477,31.39c-0.22,0-1.67,1.67-4.36,5.011
			h0.66c0-0.28,1.34-1.95,4.03-5.011H144.477z M139.417,56.941l-2.01,3.039v0.33h0.7l3-2.71l0.33,0.69l-1.65,2.02v0.33h0.33
			c2.14-1.779,3.59-2.67,4.36-2.67c-1.13,1.561-2.02,2.34-2.67,2.34v0.65h0.65c1.51-1.12,2.52-2.24,3.04-3.36
			c-0.22,0-0.56-0.109-1.02-0.33l-1.69,0.33L139.417,56.941z M135.727,20.581c0.35,0,0.8-0.44,1.35-1.31V18.9h-0.66
			c0,0.35-0.23,0.81-0.69,1.35V20.581z M138.106,55.25c-0.3,0-1.55,1.69-3.74,5.06h1.36l3.04-3.699
			c-0.22-0.381-0.33-0.841-0.33-1.36H138.106z M136.417,21.28c0,0.55-0.45,1.33-1.35,2.34v0.33c0.85-1.12,1.52-1.68,2.01-1.68v-0.99
			H136.417z M133.056,60.31c2.46-3.369,4.14-5.51,5.05-6.409v-0.33h-0.37C134.616,57.21,133.056,59.46,133.056,60.31z
			 M125.986,10.15c0-0.44,0.44-1.22,1.31-2.34h-0.32c-0.77,0.38-1.33,1.05-1.69,2.01L125.986,10.15z M126.316,58.291
			c0.27,0,0.83-0.561,1.68-1.68h-0.7c-0.32,0-0.65,0.33-0.98,0.989V58.291z M126.977,10.851c0-0.28,0.67-1.29,2.01-3.04h-0.66
			c0,0.32-0.56,1.23-1.68,2.71v0.33H126.977z M130.667,7.811c-0.76,0.57-2,2.04-3.69,4.39v0.33c0.84-0.16,2.2-1.74,4.06-4.72
			H130.667z M136.417,29.701c-3.83,4.41-5.75,7.33-5.75,8.75h0.37c3.7-4.71,5.71-7.061,6.04-7.061v-1.029
			C137.076,29.92,136.856,29.701,136.417,29.701z M132.687,7.811c-1.95,1.86-3.06,3.32-3.33,4.39h1.31c0.3,0,1.32-1.46,3.04-4.39
			H132.687z M137.736,50.901c-1.62,1.29-4.3,4.42-8.05,9.409h1.35c4.03-5.149,6.26-7.729,6.7-7.729V50.901z M136.747,16.23
			c-4.05,5.56-6.08,9.04-6.08,10.43h0.7c0-0.57,1.9-3.94,5.71-10.1v-0.33H136.747z M131.036,51.23c1.78-1.51,3.91-3.75,6.37-6.739
			V42.48h-0.33c0,0.44-1.79,2.681-5.38,6.74C131.256,49.93,131.036,50.6,131.036,51.23z M131.036,31.71c0-0.3,0.33-1.2,0.99-2.71
			c-0.91,0.33-1.36,0.67-1.36,1.03v1.68H131.036z M131.036,41.451l8.05-9.74v-0.32h-0.65c-2.82,2.57-5.41,5.931-7.77,10.061H131.036
			z M137.076,48.52c-4.02,4-6.04,6.351-6.04,7.061c0,0.74-0.68,1.189-2.05,1.36l-2.34,3.039v0.33h0.33c1.28,0,4.2-3.029,8.75-9.08
			c0.74-0.689,1.41-1.029,2.01-1.029v-0.98C137.736,48.75,137.517,48.52,137.076,48.52z M124.626,6.451
			c8.14,0,13.86-0.22,17.18-0.66c1.23,0.22,2.23,0.33,3,0.33h3.36c8.99,0,13.48,0.56,13.48,1.69l7.39,7.06
			c-0.96,0.8-3.64,1.81-8.05,3.04c-2.24-2.68-3.93-4.48-5.05-5.38l-1.69,0.33h-9.08v0.07c-0.34,0.11-0.68,0.21-1.04,0.24
			c-0.03,0.01-0.05,0.01-0.08,0.01c-0.01,0-0.01,0.01-0.02,0.01h-3.91l-1.68,0.33c-0.22,5.67-0.33,9.81-0.33,12.44v0.37
			c0,0.5,0.11,0.93,0.33,1.32c-0.22,0.41-0.33,0.86-0.33,1.35v0.7h7.06v-0.05h0.41c0.05,0,0.08-0.03,0.1-0.06c0.02,0,0.04,0,0.06,0
			c0.67-0.01,1.33-0.1,2-0.2c0.07-0.01,0.09-0.06,0.08-0.11c0.23-0.09,0.35-0.29,0.35-0.61l-0.32-4.02l0.69-0.37
			c4.03,0,6.04,0.34,6.04,1.03v7.39c0,1.479,0.34,4.399,1.03,8.75l-0.33,1.5c-0.24,0.069-0.48,0.14-0.73,0.18l-1.65-0.32h-4.03
			c-0.46-3.81-0.92-5.71-1.35-5.71c-5.84,0.54-8.75,1.33-8.75,2.341c0,11.01,0.56,16.51,1.68,16.51h4.36
			c8.98,0,13.47-0.561,13.47-1.681c0-1.119,0.9-2.699,2.71-4.729c2.47,2.25,4.82,3.7,7.07,4.36v0.369
			c-4.91,5.641-7.71,8.671-8.42,9.08h-4.4c-0.22,0-0.33-0.109-0.33-0.33l-0.66,0.33c-4.49-0.22-7.51-0.33-9.08-0.33v-0.369
			c-0.24,0-0.36,0.119-0.36,0.369c-1.18-0.47-5.44-0.92-12.78-1.359c-0.22,0-0.33,0.109-0.33,0.33l-1.68-0.33h-1.03l-3.37,0.33
			c-0.44-1.45-0.88-3.351-1.31-5.71l0.65-1.351l1.69,0.32l2.34-0.32c0,0.221,0.12,0.32,0.37,0.32v-0.32c0-0.439-0.23-0.66-0.7-0.66
			c0.41,0,0.75-2.59,1.03-7.77c-0.22-7.17-0.33-11.32-0.33-12.44c0-2.8,0.22-7.399,0.66-13.81c-0.22-1.61-0.33-3.74-0.33-6.36
			c-0.22,0-0.33-0.13-0.33-0.37l-3.37,0.37h-1.03c-0.44,0-0.78-1.13-1.02-3.37l0.37-0.7c-0.47-1.07-0.7-2.08-0.7-3.04
			C124.066,6.561,124.406,6.451,124.626,6.451z M131.036,48.191c2.85-2.851,4.97-5.311,6.37-7.4V39.77
			C134.556,42.291,132.437,45.09,131.036,48.191z M131.036,34.71v0.37h0.33c0.44-1.37,2.23-3.61,5.38-6.73v-1.69h-0.7L131.036,34.71
			z M131.036,53.571c0.28,0,2.51-2.25,6.7-6.74v-0.65h-0.33c-4.25,3.8-6.49,6.271-6.74,7.391H131.036z M131.366,15.201l5.05-7.39
			h-1.35l-4.4,6.08v0.65C130.727,14.98,130.957,15.201,131.366,15.201z M131.036,45.85c3.4-4.109,6.53-8.6,9.41-13.479
			c0.9-0.33,1.36-0.66,1.36-0.98v-0.37c-1.07,0.051-4.33,3.641-9.78,10.761c-0.91,0.79-1.36,1.699-1.36,2.71v1.359H131.036z
			 M131.696,17.911c0-0.9,2.57-4.16,7.72-9.78V7.48h-0.98c-2.82,2.95-5.18,6.09-7.07,9.4v1.03H131.696z M131.366,22.641
			c4.03-5.92,6.04-9.4,6.04-10.44c1.4,0,2.63-1.46,3.7-4.39V7.48h-0.33c-0.86,1.34-2,2.91-3.41,4.69c-1.06,1.34-2.28,2.8-3.66,4.39
			c-1.78,2.3-2.67,4.2-2.67,5.71v0.37H131.366z M132.687,30.03c0.46-0.16,1.82-2.19,4.06-6.08h-0.7c0,0.3-1.12,2.22-3.36,5.75V30.03
			z"/>
		<path fill="#FFFFFF" d="M142.457,45.52l0.33,0.66v1.021c0,1.1,0.11,2.77,0.33,5.01c2.25-0.21,3.93-0.32,5.05-0.32h5.76
			c1.77,0,3.01-2.02,3.69-6.04v-0.33h-0.33c-2.98,0-6.69,0.33-11.13,0.98l-0.66-0.98v-3.04h-2.01l-0.7-0.329
			c0,0.439-0.11,0.659-0.33,0.659l0.33,0.65v1.69C142.786,45.401,142.676,45.52,142.457,45.52z M132.687,65.361h-0.99
			c-2.46,0-5.72,0.449-9.78,1.359c-0.44-1.92-1-6.189-1.68-12.819h0.37l-0.37-0.66v-1.03c0.05-0.43,0.29-0.65,0.7-0.65h2.34
			l2.34-0.33c-0.44-0.96-0.66-2.75-0.66-5.38v-6.08c0-4.55,0.11-9.369,0.33-14.459c-0.22-1.29-0.33-3.08-0.33-5.39
			c0.22-1.23,0.33-2.13,0.33-2.71l-4.02,0.37h-0.33c-0.36,0-0.7-0.34-1.03-1.02c-0.22-5.89-0.33-10.26-0.33-13.11
			c0.85-0.68,1.86-1.03,3.04-1.03c3.92,0,7.96,0.11,12.12,0.33l27.24-0.98c0.52,0,4.56,4.26,12.12,12.77v0.66
			c0,1.23-4.15,3.82-12.45,7.76h-1.03c-3.64-4.49-6.44-6.73-8.38-6.73l-7.43-0.7c-1.57,0.3-2.35,0.64-2.35,1.03v10.1h2.71
			l-0.36-3.37v-1.68c0-0.63,2.47-1.08,7.43-1.36c4.03,0,6.04,1.58,6.04,4.73h-0.33l0.33,0.65v13.48c0,0.22-0.11,0.33-0.33,0.33
			c0.49,4.05,0.82,6.079,0.99,6.079c8.43,2.79,13.49,5.82,15.16,9.08c0,0.49-3.25,4.08-9.74,10.761c-0.14,0.55-0.93,1.109-2.38,1.68
			c-4.14-0.21-7.62-0.32-10.44-0.32h-2.01c-0.49,0-0.95-0.13-1.36-0.37c-0.22,0-0.32,0.12-0.32,0.37
			C140.227,65.81,135.176,65.361,132.687,65.361z M135.727,5.141h-4.69c-1.8,0-3.94-0.13-6.41-0.37c-0.22,0.24-1.12,0.37-2.71,0.37
			v5.71l0.37,4.02h3.7c1.67,0,2.56,0.34,2.67,1.03v0.98c-0.9,0.96-1.36,2.76-1.36,5.39v16.18c0,1.779,0.13,4.14,0.37,7.069
			l-0.37,0.66c0.47,3.2,0.7,5.45,0.7,6.73l-1.02,0.66h-3.7l-0.66,0.33c0.22,2.409,0.44,3.869,0.66,4.39c0,0.22-0.11,0.33-0.33,0.33
			l0.99,5.38c1.2-0.43,2.1-0.65,2.71-0.65v0.33c0.43-0.22,0.78-0.33,1.02-0.33c1.46,0,2.91-0.109,4.36-0.33
			c1.61,0.221,3.64,0.33,6.08,0.33h0.33c0.22,0,0.33,0.11,0.33,0.33c0.21,0,0.32-0.109,0.32-0.33c4.99,0.65,8.36,0.98,10.11,0.98
			h8.42l4.03,0.37c5.45-5.561,8.58-8.931,9.41-10.101c0-1.239-3.81-3.37-11.42-6.409v0.329c-1.65,3.83-2.77,5.75-3.37,5.75h-4.03
			c-2.35,0-5.96,0.11-10.8,0.33c-0.44-0.739-0.66-1.3-0.66-1.689c0-0.74-0.11-4-0.33-9.771l-1.03-1.689
			c0.36-0.88,0.7-1.311,1.03-1.311h6.41c0.33,0,0.66,0.33,0.99,0.98v3.04c2.68-0.46,4.36-0.8,5.05-1.021
			c0.44,0.221,0.78,0.32,1.03,0.32h0.65v-0.09c0.27-0.04,0.51-0.11,0.77-0.19c0.01,0,0.03-0.01,0.04-0.01
			c0.03,0,0.04-0.02,0.05-0.03h0.17l0.66-0.33c-0.22-0.909-0.44-3.26-0.66-7.069c0.22-4.49,0.33-8.42,0.33-11.79
			c-1.18-0.66-3.88-0.99-8.09-0.99h-0.66v0.33c0.2,3.32,0.31,5.27,0.32,5.89c-0.59,0.09-1.18,0.18-1.78,0.18
			c-0.23,0-0.47-0.02-0.7-0.05l-1.91-0.31c-0.82,0.22-1.71,0.33-2.67,0.33c-0.44-0.71-0.66-1.38-0.66-2.01v-9.74
			c0-2.71,0.78-4.06,2.34-4.06h2.02v-0.11c0.36-0.02,0.7-0.11,1.04-0.22c2.15,0,3.27,0.11,3.35,0.33l0.66-0.33
			c5.67,0,9.71,2.46,12.12,7.39c5.61-2.85,8.86-4.75,9.74-5.71c0-0.44-3.36-4.02-10.07-10.76c-0.25,0-0.37,0.11-0.37,0.33
			l-1.31-0.33C154.396,4.11,146.536,4.451,135.727,5.141z"/>
	</g>
	<g>
	</g>
</g>
<g id="XMLID_3_">
	<g>
		<path fill="#2E3192" d="M235.056,61.17h1.36c0.33,0,0.76-0.56,1.31-1.68l-0.33-0.7v-3.37h-0.33c-0.9,2.771-1.57,4.45-2.01,5.05
			V61.17z M233.376,9.98v0.7h3.37c0.43,0,0.65-0.23,0.65-0.7v-2.67h-0.33C234.937,9.09,233.696,9.98,233.376,9.98z M231.356,61.17
			c0.61-0.3,1.61-2.22,3-5.75l1.69-1.69l0.37,0.7c-2.25,3.29-3.37,5.54-3.37,6.74h0.33c0.32,0,1.45-2.25,3.37-6.74
			c0.32,0,0.65-0.34,0.98-1.02l-2.01-0.33C234.096,54.991,232.646,57.691,231.356,61.17z M231.687,41.621v1.02
			c0.44,0,0.66-0.22,0.66-0.649v-0.37H231.687z M232.017,29.17h-0.33v0.7h0.33V29.17z M229.676,61.17c0.27,0,1.73-2.479,4.35-7.44
			c0.22,0,0.33-0.1,0.33-0.319v-0.33h-0.66C231.017,57.73,229.676,60.43,229.676,61.17z M230.006,30.85l-1.03,1.36h0.37l0.99-1.36
			H230.006z M227.997,34.92h0.32c2.69-1.32,4.03-2.67,4.03-4.07l-0.66-0.33c0,0.5-1.23,1.841-3.69,4.03V34.92z M227.296,30.19
			c3.36-2.98,5.05-4.77,5.05-5.38h-0.33c-3.09,2.69-4.67,4.25-4.72,4.69V30.19z M227.997,60.8h0.32c0.28,0,1.62-2.35,4.03-7.07
			v-0.319C231.056,54.8,229.606,57.27,227.997,60.8z M227.667,39.6h0.33c1.17-1.56,2.51-2.79,4.02-3.689l0.33-2.021h-0.66
			C229.006,37.26,227.667,39.161,227.667,39.6z M231.687,19.431c-2.68,1.95-4.02,3.29-4.02,4.03h0.33c2.9-2.85,4.35-4.43,4.35-4.73
			l-0.33-0.65c0.22-0.44,0.33-0.78,0.33-1.03h-0.33c-0.27,0-1.4,1.12-3.37,3.37h0.33c0-0.28,0.68-0.84,2.06-1.69
			C231.466,18.791,231.687,19.021,231.687,19.431z M231.356,22.431c-2.46,2.66-3.69,4.12-3.69,4.4v0.65
			c3.12-2.63,4.68-4.42,4.68-5.38c-0.22-0.44-0.33-0.76-0.33-0.98c0.22,0,0.33-0.13,0.33-0.37h-0.33l-0.98,0.69l0.32,0.66V22.431z
			 M227.667,47.701c0.27,0,1.05-1.13,2.34-3.37h-0.33C228.336,45.831,227.667,46.96,227.667,47.701z M227.296,32.21
			c2.98-2.93,4.67-4.4,5.05-4.4v-0.66h-0.33c-2.3,2.47-3.87,3.7-4.72,3.7V32.21z M226.966,16.391v0.66h0.7
			c0-0.38,1.45-1.95,4.35-4.68v-1.03C231.747,11.34,230.056,13.021,226.966,16.391z M226.966,14.05v0.33h0.33
			c5.78-5.4,9.03-8.09,9.77-8.09V5.96h-2.01c0,0.27-1.9,2.06-5.71,5.38L226.966,14.05z M226.966,9.98h0.33
			c0-0.27,0.56-1.16,1.68-2.67h-0.33l-1.68,2.34V9.98z M227.296,12c1.97-2.17,4.21-4.18,6.73-6.04h-0.65
			c-1.81,0-3.95,2.01-6.41,6.04H227.296z M231.687,14.38c-3.15,2.57-4.72,4.48-4.72,5.71v0.33c0.27,0,1.96-1.69,5.05-5.06v-0.98
			H231.687z M227.296,44.98h0.37c2.35-2.35,3.91-4.25,4.68-5.71v-2.34h-0.33c-0.44,0.061-0.66,0.28-0.66,0.66
			c0.22,0.44,0.33,0.78,0.33,1.03L227.296,44.98z M230.656,38.25c-2.24,2.08-3.36,3.54-3.36,4.39h0.7c0-0.27,0.88-1.609,2.66-4.02
			V38.25z M226.306,60.8h0.33c2.19-4.03,4.09-7.05,5.71-9.08v-0.66C229.446,54.081,227.426,57.321,226.306,60.8z M225.276,57.1
			c0-0.899,2.36-4.939,7.07-12.12l-0.33-0.649c0.22-0.44,0.33-0.78,0.33-1.03h-0.66c-2.68,4.11-4.02,6.92-4.02,8.42
			c-1.13,0.8-2.03,2.48-2.71,5.05v0.33H225.276z M223.926,10.681h1.03l3.69-4.72h-1.35l-3.37,4.02V10.681z M232.017,47.371
			c-2.52,3.53-5.09,8.01-7.72,13.43h0.33c0.27,0,1.84-2.68,4.72-8.05c0.82-0.47,1.82-1.82,3-4.07v-1.31H232.017z M222.937,10.351
			c0-1.26,1.12-2.61,3.37-4.06V5.96h-0.33c-1.18,0.33-2.3,1.67-3.37,4.02v0.37H222.937z M223.926,5.96c-0.33,0-0.66,0.34-0.99,1.02
			v0.33c0.33,0,0.78-0.45,1.36-1.35H223.926z M222.606,7.97c-0.46,0.05-0.7,0.29-0.7,0.7h0.7V7.97z M221.906,6.61
			c0.47,0,0.7-0.21,0.7-0.65h-0.7V6.61z M224.957,50.041c-1.18,3.64-2.07,6.11-2.67,7.39c0.65,1.021,0.98,1.7,0.98,2.061h0.66
			c-0.44-0.58-0.66-1.03-0.66-1.36c1.23-3.53,2.25-5.89,3.04-7.07c-0.22-0.46-0.33-0.8-0.33-1.02H224.957z M221.906,43.67
			c-1.06,0-2.19,2.57-3.36,7.72l0.7,0.33c0-1.72,0.88-3.63,2.66-5.71h0.7v0.33c-0.79,0.96-1.8,3.101-3.04,6.41
			c0.44,0.71,0.66,1.27,0.66,1.68h0.37c0-0.35,0.78-2.6,2.34-6.729h0.99v0.319c-0.77,1.07-1.66,3.771-2.67,8.101h0.65
			c1.02-4,2.03-6.48,3.05-7.44C223.606,46.791,222.596,45.121,221.906,43.67z M218.216,49.71c0-2.14,1.01-4.49,3.04-7.07
			c0-0.33-0.35-0.67-1.03-1.02l-3.37,7.06c0.47,0,0.7,0.34,0.7,1.03H218.216z M219.566,40.3c-0.22,0-1.56,1.9-4.02,5.71
			c0.44,0.55,0.65,1,0.65,1.36c0.28,0,1.51-2.36,3.7-7.07H219.566z M217.556,37.92c-1.81,3.04-2.71,5.28-2.71,6.74v0.319
			c1.7-1.89,3.05-3.899,4.07-6.029c-0.25-0.471-0.37-0.811-0.37-1.03H217.556z M214.187,43.3c0-1.229,1.01-3.35,3.04-6.37v-1.02
			c-0.9,0-2.03,2.24-3.37,6.729v0.66H214.187z M213.156,41.291c1.43-4.03,2.55-6.04,3.37-6.04c-0.33-0.91-0.65-1.36-0.98-1.36
			c-1.48,2.63-2.5,5.101-3.04,7.4H213.156z M212.836,30.19l-2.67,7.07l0.65,0.33c2.03-3.81,3.04-6.16,3.04-7.07v-0.33H212.836z
			 M214.187,32.21l-2.71,7.06v0.33h0.7c0-1.39,1.01-3.64,3.04-6.729c0-0.44-0.23-0.66-0.7-0.66H214.187z M208.477,33.89l3-7.39
			h-0.33c-0.66,0.27-1.67,2.63-3.04,7.06v0.33H208.477z M207.776,32.21c0-1.51,0.91-3.75,2.71-6.74v-0.66h-0.69
			c-1.4,2.85-2.29,5.1-2.67,6.74v0.66H207.776z M211.846,28.181c-1.81,4.03-2.71,6.49-2.71,7.4l0.66,0.33
			c1.8-4.61,2.71-7.18,2.71-7.73H211.846z M208.806,23.13c0,0.55-1.12,2.23-3.37,5.05c0.17,1.34,0.51,2.01,1.03,2.01
			c1.23-3.09,2.23-5.23,3-6.4C209.466,23.351,209.247,23.13,208.806,23.13z M205.437,56.77c-0.33,0-0.78,0.46-1.35,1.36v0.33
			c0.74-0.69,1.3-1.03,1.68-1.03v-0.66H205.437z M207.776,21.121c-2.46,3.28-3.69,5.3-3.69,6.03l0.69,0.33h0.33
			c0-0.33,1.13-2.12,3.37-5.38c-0.25-0.44-0.37-0.76-0.37-0.98H207.776z M203.426,61.5c0.33,0,1.11-0.79,2.34-2.38v-0.33h-0.33
			c-1.56,0.96-2.34,1.63-2.34,2.01v0.7H203.426z M203.756,25.47c0-0.66,1.23-2.34,3.69-5.05v-0.33h-0.65
			c-1.76,2.93-2.99,4.39-3.7,4.39v0.33C203.146,25.25,203.366,25.47,203.756,25.47z M202.396,20.09c1.64-1.78,2.66-2.67,3.04-2.67
			v-0.7h-0.33c-0.35,0-1.26,1.01-2.71,3.04V20.09z M206.096,18.081c-2.52,2.13-3.97,3.82-4.36,5.05l0.99,0.66
			c0-0.5,1.36-2.06,4.07-4.69c-0.22-0.46-0.33-0.8-0.33-1.02H206.096z M201.046,21.771c0.46,0,0.69-0.22,0.69-0.65h-0.69V21.771z
			 M200.386,60.8c0.85-0.49,1.63-1.38,2.34-2.67h-0.66c0,0.22-0.67,1-2.01,2.34v0.33H200.386z M200.386,20.75
			c2.68-3.13,4.02-4.92,4.02-5.39v-0.32h-0.32C201.616,18.081,200.386,19.98,200.386,20.75z M200.056,19.101
			c0-0.57,1.23-2.15,3.7-4.72c-0.22-0.47-0.33-0.81-0.33-1.03c-0.36,0-1.82,1.58-4.4,4.73c0.22,0.43,0.33,0.78,0.33,1.02H200.056z
			 M198.696,17.05c2.03-2.9,3.37-4.36,4.03-4.36V12h-0.33c-0.77,0.41-2.11,2.09-4.02,5.05H198.696z M201.046,10.351l-3.33,4.69v1.02
			c2.16-3.15,3.5-4.72,4.02-4.72v-0.33C201.736,10.57,201.506,10.351,201.046,10.351z M197.017,14.38l3.7-5.05
			c0-0.44-0.22-0.66-0.66-0.66l-3.7,4.68v0.33C196.417,14.15,196.636,14.38,197.017,14.38z M197.716,60.14v0.33h0.98
			c0-0.6,1.13-1.72,3.37-3.37h-1.02C198.826,58.97,197.716,59.98,197.716,60.14z M197.716,56.77c-1.59,1.57-2.38,2.69-2.38,3.37
			h0.69c0.28,0,1.28-1.01,3-3.04L197.716,56.77z M195.006,21.121c-0.28,0-0.84,0.67-1.69,2.01v0.33c0.28,0,0.84-0.56,1.69-1.69
			V21.121z M193.646,20.42v0.33h0.33l1.03-2.02V18.4h-0.33C194.676,18.92,194.326,19.601,193.646,20.42z M196.026,55.09
			c-0.3,0-1.42,1.58-3.37,4.72v0.33h0.99c0.27,0,1.29-1.34,3.04-4.02c-0.22-0.47-0.33-0.811-0.33-1.03H196.026z M192.986,21.771
			h-0.33v0.66h0.33V21.771z M190.977,30.19c2.47-3.99,3.7-6.13,3.7-6.4c-0.52,0.05-1.88,2.08-4.07,6.08v0.32H190.977z
			 M190.977,60.14l5.05-6.41V52.75h-0.37c0,0.38-1.56,2.74-4.68,7.06V60.14z M188.966,45.68l6.04-7.43c-0.22-0.33-0.33-1-0.33-2.021
			c-2.93,3.15-4.84,5.511-5.71,7.07V45.68z M188.966,53.081c0.49,0,2.72-2.14,6.69-6.41v-0.66h-0.32c-2.85,2.63-4.98,4.88-6.37,6.74
			V53.081z M193.316,7.641c-0.22,0-1.67,2.01-4.35,6.04v1.36c3.8-4.66,5.71-7.12,5.71-7.4H193.316z M188.966,41.291
			c0.65-0.39,2.45-2.63,5.38-6.74v-0.99c-0.25,0-2.04,2.25-5.38,6.74V41.291z M189.296,50.741c3.8-4.061,5.93-6.08,6.36-6.08V42.31
			c-4.41,4.771-6.64,7.58-6.69,8.431H189.296z M195.656,7.641l-6.36,9.08v1.36h0.32c0-0.96,1.8-3.43,5.39-7.4
			c0-0.52,0.67-1.53,2.01-3.04H195.656z M189.296,22.101h0.32c0-0.49,1.69-2.96,5.06-7.39c0-1.18,1.23-2.97,3.7-5.38l0.98-1.36
			v-0.33h-0.33c-1.28,0.74-4.53,4.78-9.73,12.12V22.101z M188.966,48.02c3.39-3.529,5.52-5.989,6.37-7.39V39.6
			c-2.42,2.301-4.54,5-6.37,8.101V48.02z M189.296,26.831c0-0.52,1.9-4,5.71-10.44v-0.33h-0.33c0,0.44-1.47,2.56-4.4,6.37
			c-0.87,1.59-1.31,2.71-1.31,3.37v1.03H189.296z M196.026,50.741c-0.63,0-3.43,3.02-8.42,9.069h2.34c2.88-4.93,4.91-7.39,6.08-7.39
			V50.741z M188.596,34.92h0.7c0.27-0.85,1.83-2.99,4.68-6.41l0.7-2.01C192.917,28.44,190.896,31.25,188.596,34.92z M189.946,28.84
			c-0.9,0.22-1.35,1-1.35,2.34v0.37h0.37C189.616,30.13,189.946,29.22,189.946,28.84z M193.977,30.19
			c-3.59,3.98-5.38,6.78-5.38,8.43h0.7c0.43-0.91,2.12-3.26,5.05-7.07v-1.36H193.977z M187.276,12h1.32
			c2.02-1.89,3.04-3.35,3.04-4.36h-1.03C190.276,7.641,189.167,9.09,187.276,12z M184.566,58.46c0.17-1.12,0.73-1.69,1.69-1.69
			v-0.319h-1.03c-0.49,0-0.82,0.56-0.99,1.68v0.33H184.566z M184.896,12h1.36c0-0.28,0.9-1.62,2.71-4.03v-0.33
			C188.667,7.641,187.306,9.09,184.896,12z M189.296,55.42c-1.87,1.01-3.44,2.48-4.73,4.39v0.33h1.03l10.43-11.09v-0.7h-0.37
			c-4.46,4.11-6.69,6.25-6.69,6.41L189.296,55.42z M184.566,11.34c0-0.44,0.78-1.56,2.34-3.37v-0.33c-0.54,0.22-1.43,1.34-2.67,3.37
			v0.33H184.566z M183.906,61.831c-0.9-1.23-1.35-3.48-1.35-6.74l0.66-0.33l1.35,0.33c1.23-0.22,2.25-0.33,3.04-0.33v-0.33h-0.7
			v-0.7l0.7-0.979v-1.69c0-6.729-0.11-12.8-0.33-18.189l0.66-13.11c-0.13-1.29-0.22-2.53-0.27-3.73c-0.04-0.8-0.06-1.58-0.06-2.35
			c-0.22,0-0.33-0.11-0.33-0.33l-3.37,0.33h-1.02c-0.44,0-0.78-1.11-1.03-3.33c0-0.24,0.12-0.37,0.37-0.37l-0.37-1.68V6.98
			c0.08-0.46,0.32-0.69,0.7-0.69h12.12c2.02,0,3.93-0.22,5.71-0.66c0,0.71,0.5,1.53,1.47,2.45c0.29,0.56,0.62,1.1,0.96,1.63
			c0,0.01,0.02,0.01,0.02,0.02l23.14,38.29h0.66l-0.33-2.34c0-1.479-0.11-7.54-0.33-18.2l-0.37-1.31c0-0.25,0.13-0.37,0.37-0.37
			c-0.24-3.01-0.37-5.25-0.37-6.7V12h-2.34c-1.62,0-2.51-0.33-2.67-0.99V5.3c0.06-0.47,0.27-0.7,0.66-0.7h16.47
			c0.47,0.06,0.7,0.29,0.7,0.7v6.37c0,0.46-0.23,0.7-0.7,0.7h-2.34l-1.69-0.37v39.72l4.03,0.33h1.1c0,1.58-0.02,3.15-0.03,4.72
			h-0.04v5.71c-0.3,0.2-0.88,0.301-1.72,0.32c-0.01-0.02-0.04-0.04-0.08-0.05c-0.35-0.04-0.69-0.05-1.03-0.05
			c0.04-0.07,0.08-0.13,0.12-0.221h-6.04c-4.93,0-7.4-0.56-7.4-1.68l-22.22-37.34c-2.25-3.92-3.37-6.06-3.37-6.41h-0.66v2.05
			c0,0.22-0.11,0.33-0.33,0.33l0.33,0.66v2.34c0,3.59-0.23,7.19-0.7,10.799l0.37,0.66l-0.37,0.66c0.91,4.33,1.36,8.15,1.36,11.46
			v0.66c0,0.22-0.11,0.33-0.33,0.33l0.33,0.7v3.04c0,3.34,0.78,5.01,2.34,5.01c3.95-0.22,6.42-0.33,7.44-0.33l0.33,0.7v4.02
			l0.32,1.69c-0.6,0.55-1.94,0.87-4.02,0.979l-5.05-0.979l-0.66,0.33c-0.96-0.44-2.77-0.66-5.42-0.66h-1.32
			c-0.25,0-0.37-0.11-0.37-0.33c-0.66,0.22-0.99,0.44-0.99,0.66l-1.68-0.33h-2.34L183.906,61.831z M183.536,9.98
			c0.31,0,0.87-0.67,1.69-2.01v-0.33C184.106,7.97,183.536,8.75,183.536,9.98z"/>
		<path fill="#FFFFFF" d="M180.866,54.43l0.99,9.41c1.64-0.68,3.89-1.03,6.74-1.03h3.04c1.5,0,6,0.351,13.47,1.03
			c2.47,0,3.7-0.34,3.7-1.03c-0.22-3.75-0.33-6.659-0.33-8.75v-0.33h-5.05c-1.59,0.471-2.49,0.7-2.71,0.7h-0.66
			c-1.12,0-1.68-2.59-1.68-7.76h0.32c-0.32-0.71-0.65-2.27-0.98-4.68l0.33-2.391V24.11h0.33c1.67,1.07,5.6,7.36,11.79,18.86
			l12.12,20.87c3.69-0.22,6.49-0.33,8.37-0.33h4.4c0.22,0,0.45-0.17,0.67-0.479c0.02,0.029,0.05,0.06,0.1,0.06h0.92v0.09h2.67
			c-0.22-1.17-0.33-3.31-0.33-6.41h-0.04c0.01-1.569,0.03-3.14,0.03-4.72h0.01v-0.99h-0.66c-1.59,0-2.82-0.229-3.7-0.689
			c-0.24-5.26-0.37-9.18-0.37-11.75V27.48c0-3.31-0.11-7.79-0.33-13.43l0.7-0.37h6.04V5.3l-0.33-1.68h-20.87v9.4
			c0.22,0,0.33-0.11,0.33-0.33c2.93,0.17,4.4,0.5,4.4,0.99v2.38c0,8.08,0.33,17.05,0.98,26.91l-0.65,0.33
			c-12.29-19.4-19.5-30.58-21.64-33.55c0.05-0.03,0.09-0.1,0.04-0.17c-0.34-0.53-0.67-1.08-0.97-1.64
			c-0.03-0.22-0.57-1.01-1.59-2.37c-0.23-0.3-0.47-0.62-0.74-0.97c-0.57,0-2.26,0.11-5.05,0.33c-7.59-0.22-11.97-0.33-13.15-0.33
			l-1.68,0.33v2.71c0,1.56,0.12,4.03,0.37,7.4l4.02-0.33c1.78,0.38,2.67,0.83,2.67,1.35v0.66c-1.12,0.85-1.68,3.31-1.68,7.39v1.03
			c0,15.419,0.34,24.51,1.03,27.28l-1.36,0.99h-3.37C181.086,53.411,180.866,53.75,180.866,54.43z M178.526,2.59h19.85l2.01-0.33
			c0.85,0,3.76,4.15,8.75,12.45c7.01,10.6,11.27,17.33,12.77,20.21h0.7l-0.32-2.38v-1.36c0-0.66,0.1-0.99,0.32-0.99l-0.32-1.68
			c-0.25-7.59-0.38-11.97-0.38-13.15c-3.12-0.16-4.68-0.49-4.68-0.98V1.931c0.06-0.46,0.27-0.7,0.66-0.7h24.24
			c0.65,0,0.98,2.59,0.98,7.77v7.06h-6.69c0,4.93,0.22,15.81,0.65,32.62h1.69c1.67,0,2.56,0.34,2.67,1.03
			c0.239,7.5,0.369,12.56,0.369,15.16c-0.85,0.649-1.64,0.979-2.379,0.979h-18.49c-1.88-2.87-4.78-7.71-8.7-14.51
			c-3.09-5.37-6.82-11.97-11.18-19.79h-0.33v6.7c0,2.24,0.11,5.61,0.33,10.1h-0.33l0.33,0.7v2.67h8.75c0.26,0,0.52,0.19,0.77,0.58
			c0.08,0.13,0.17,0.28,0.25,0.45c0.22,4.979,0.33,9.02,0.33,12.12v0.33c0,0.43-0.22,0.649-0.66,0.649h-5.71l-2.05,0.33
			c-4.82-0.66-8.74-0.979-11.75-0.979h-2.01c-1.18,0-4.22,0.319-9.12,0.979l-0.33-0.66v-0.649c0-1.23-0.33-4.38-0.99-9.45h0.33
			c-0.22-0.38-0.45-1.51-0.7-3.37l1.36-0.99h4.02c-0.43-2.52-0.65-4.54-0.65-6.08c0-2.729,0.11-9.569,0.33-20.5l-0.33-4.72
			c0.44-1.4,0.65-2.3,0.65-2.71h-0.32c-2.8,0.25-4.36,0.37-4.69,0.37c-0.46-0.58-0.7-1.03-0.7-1.36c0-2.35-0.11-5.94-0.32-10.76
			C177.716,3.49,178.066,2.59,178.526,2.59z"/>
	</g>
	<g>
	</g>
</g>
<g id="XMLID_4_">
	<g>
		<path fill="#2E3192" d="M296.807,58.791c-0.33,0-0.891,0.64-1.69,1.93h1.69V58.791z M293.437,60.72c1.97-2.14,3.09-3.21,3.37-3.21
			v-2.26c-2.03,2.14-3.261,3.96-3.7,5.47H293.437z M294.137,8.46c-0.801,0-2.15,1.33-4.07,3.99h0.7c1.17-0.8,2.3-2,3.37-3.62V8.46z
			 M290.767,59.81c-0.221,0.391-0.33,0.69-0.33,0.91h0.979c3.811-4.88,5.71-7.68,5.71-8.42v-1.93h-0.319
			C296.807,51.21,294.786,54.361,290.767,59.81z M288.376,60.72h1.03c0-0.55,2.14-3.77,6.41-9.66c0.88-1.8,1.31-2.899,1.31-3.279
			v-0.7L288.376,60.72z M288.746,12.451l4.36-4.89h-0.66c-2.93,2.46-4.39,3.98-4.39,4.56v0.33H288.746z M288.057,53.321h0.319
			c0.631-2.08,2.32-4.46,5.061-7.141l-0.66-0.33h-1.03L288.057,53V53.321z M290.437,7.561c-2.3,2.24-3.66,3.76-4.07,4.56h0.7
			c0-0.52,1.229-2.04,3.7-4.56H290.437z M292.776,48.111l-7.72,11.01v0.37c3.75-4.391,6.43-8.181,8.05-11.38H292.776z
			 M289.076,56.201l-3.689,4.52h1.31c1.86-1.729,5.01-6.38,9.45-13.97V46.5h-0.33C295.347,46.5,293.106,49.741,289.076,56.201z
			 M288.376,7.561c-1.17,0.85-2.52,2.37-4.02,4.56v0.33h0.33l4.39-4.89H288.376z M282.666,12.451h1.03c0-1.07,0.67-2.28,2.01-3.62
			h-0.319c-1.811,1.95-2.721,3.04-2.721,3.29V12.451z M284.687,60.72v-0.33h-0.66v0.33H284.687z M283.366,60.14
			c-0.46,0.061-0.7,0.25-0.7,0.58h0.7V60.14z M279.996,11.75v0.37h0.99c0.22,0,1.68-1.52,4.4-4.56h-1.03
			C284.026,7.561,282.576,8.96,279.996,11.75z M284.356,57.51c-0.6,0-1.84,1.07-3.7,3.21h0.66
			C283.336,58.72,284.356,57.651,284.356,57.51z M282.017,57.191c-0.74,0-1.98,1.17-3.7,3.529h0.99c0.21,0,1.34-1.18,3.359-3.529
			H282.017z M277.946,9.49v-0.33c-0.55,0-1.22,0.99-2.01,2.96h0.689C276.626,11.431,277.066,10.561,277.946,9.49z M280.986,7.561
			c-1.01,0.6-2.25,2.12-3.7,4.56h1.69c0-0.74,1.12-2.26,3.37-4.56H280.986z M277.946,33.151c0-0.24,5.51-5.431,16.51-15.57v-0.61
			h-0.319l-16.521,16.181H277.946z M272.236,60.72l4.39-3.859h-2.01c-2.49,1.75-3.74,2.93-3.74,3.529v0.33H272.236z M275.937,7.561
			c-1.78,1.45-2.67,2.85-2.67,4.19l2.01,0.37l-0.33-0.7c1.23-2.19,2.23-3.29,3-3.29v-0.57H275.937z M270.876,7.891
			c-0.649,0-1.54,1.29-2.67,3.86h0.33c1.92-2.25,3.04-3.53,3.37-3.86H270.876z M273.586,60.72h3.04c2.471-2.47,3.7-3.75,3.7-3.859
			h-1.68l-5.061,3.529V60.72z M269.896,11.75h1.35l3.37-4.19h-0.37C273.017,7.561,271.566,8.96,269.896,11.75z M264.517,38.701
			l5.05-5.221h-0.37l-5.01,5.221H264.517z M268.206,56.531c0,0.66-1.46,1.939-4.39,3.859v0.33h5.38c1.75-1.95,3-3.229,3.74-3.859
			h-0.37l-4.36,3.529c-0.43,0-0.649-0.189-0.649-0.58c1.779-1.75,2.89-2.619,3.319-2.619v-0.66H268.206z M268.206,7.891
			c0,0.22-0.779,1.39-2.34,3.53h1.32c0-0.66,0.79-1.83,2.38-3.53H268.206z M261.477,60.14l-0.66,0.91h2.01
			c0-0.82,1.34-2.109,4.03-3.859v-0.66h-0.99C265.866,57.241,264.406,58.451,261.477,60.14z M260.116,42.89h0.33l1.03-1.27h-0.33
			L260.116,42.89z M258.437,61.05h0.689c1.511-1.399,3.41-2.91,5.71-4.52h-2.34c0,0.38-1.35,1.779-4.06,4.189V61.05z
			 M255.066,12.451c0-0.69,1.12-2.21,3.37-4.56h-0.99l-2.71,4.23v0.33H255.066z M260.816,9.161c-2.25,1.84-4.49,4.64-6.74,8.42v1.32
			h0.99c0.79-2.3,3.04-5.78,6.729-10.44c0.471,0.08,0.7,0.32,0.7,0.7c-3.939,5.1-6.08,8.34-6.41,9.74c2.521,0,4.21-0.87,5.061-2.59
			c0.649-1.92,2.67-4.64,6.04-8.18h0.37v-0.24h-1.36c-3.89,3.91-6.13,7.15-6.74,9.69h-0.33c-0.22-0.41-0.319-0.72-0.319-0.94
			c1.229-3.1,3.239-6.01,6.029-8.75h-5.05c-2.85,2.87-4.529,5.04-5.05,6.49v0.33h0.33c0.74-1.87,2.42-3.95,5.05-6.25
			C260.586,8.541,260.816,8.78,260.816,9.161z M261.796,42.56c-4.539,4.771-7.119,7.15-7.72,7.15v2.26
			c22.38-22.49,35.84-35.77,40.38-39.85c-0.21-0.41-0.319-0.86-0.319-1.36h-0.7C293.437,11.201,282.887,21.8,261.796,42.56z
			 M254.406,55.581v0.95c0.74-0.28,2.64-1.9,5.71-4.891v-1.27h-0.33C259.517,50.371,257.717,52.111,254.406,55.581z M254.406,53.901
			c26.24-24.95,39.59-37.931,40.05-38.95v-1.6c-7.529,6.96-20.989,20.36-40.38,40.22v0.33H254.406z M254.406,8.46v1.69h0.66
			c0-0.55,0.45-1.3,1.35-2.26h-1.35C254.626,7.94,254.406,8.13,254.406,8.46z M258.807,43.92l-4.4,4.521h0.33l4.39-4.521H258.807z
			 M254.406,58.46h0.33l5.38-4.56v-0.33h-0.33c-3.149,2.63-4.939,3.939-5.38,3.939V58.46z M254.406,60.39v0.33
			c2.14-1.95,3.93-3.34,5.38-4.189h0.66v0.33c-2.9,2.35-4.36,3.64-4.36,3.859v0.33h0.66l4.73-4.52c-0.91,0-1.36-0.32-1.36-0.95
			h-0.33C257.156,57.17,255.366,58.77,254.406,60.39z M253.046,12.69l-0.319-0.57c0.16-3.94,0.609-5.92,1.35-5.92h35.99
			c1.12,0,2.81-0.11,5.05-0.33l0.33,0.66v6.82c0,1.12,0.12,2.97,0.37,5.55c-4.16,3.2-15.61,13.58-34.34,31.14v4.56
			c0,0.65,2.91,0.98,8.75,0.98h10.76l4.07,0.25c3.529-7.5,5.649-11.28,6.359-11.34c4.71,0,7.07,0.56,7.07,1.689
			c0,1.91-0.11,7.101-0.33,15.57c-0.439,0.21-0.78,0.32-1.03,0.32c-9.64,0-24.22,0.109-43.75,0.33l-0.33-0.65
			c-0.22-4.82-0.319-8.73-0.319-11.71v-1.93l34.67-34.43l-1.69-0.33h-2.71c-4.08,0-9.79-0.11-17.13-0.33
			c-0.46-0.22-0.81-0.33-1.03-0.33c-2.619,4.77-4.529,7.15-5.71,7.15c-2.46,0.22-4.71,0.33-6.729,0.33c0-0.22-0.11-0.33-0.33-0.33
			C252.557,15.081,252.887,12.69,253.046,12.69z"/>
		<path fill="#FFFFFF" d="M250.706,21.771c3.04,0.22,5.29,0.33,6.74,0.33h3c1.18-1.34,3.09-4.15,5.75-8.42
			c2.36,0.47,7.74,0.89,16.15,1.27h0.649v0.7l-33.31,32.46c0.46,7.39,0.91,12.47,1.35,15.239c-0.22,0-0.33,0.11-0.33,0.33
			c0.221,0,0.33,0.11,0.33,0.32l0.66-0.32c10.79,0,26.73-0.22,47.82-0.66c0.22-0.409,0.33-0.729,0.33-0.949
			c0-1.61-0.11-7.551-0.33-17.83c-4.221-0.46-7.25-0.69-9.08-0.69c-0.58,0-2.82,3.45-6.74,10.351l-0.7,0.369
			c-12.54,0-18.81-0.43-18.81-1.27l33.31-33.73l-0.689-13.64c-12.851-0.47-28.101-0.7-45.771-0.7c0,0.25-0.109,0.37-0.33,0.37
			l0.33,0.57C250.816,12.61,250.706,17.911,250.706,21.771z M248.366,16.311c0-3.31,0.11-7.86,0.33-13.64
			c0.22,0,0.33-0.11,0.33-0.33c10.65,0.44,23.66,0.66,39.03,0.66h0.689c2.25,0,5.601,0.12,10.07,0.37c0.46,0.77,0.7,1.6,0.7,2.5
			V20.5l-30.32,30.81v0.33h2.71c2.25,0,5.61,0.11,10.11,0.33c4.189-7.12,6.43-10.68,6.729-10.68l10.07,0.7l0.7-0.37
			c1.56,0.3,2.34,0.609,2.34,0.939v4.891c0,0.22-0.11,0.33-0.33,0.33l0.33,0.66v5.13c0,2.52,0.11,6.31,0.33,11.38
			c-0.22,0-0.33,0.109-0.33,0.33c-13.34,0.439-30.95,0.66-52.83,0.66c-0.39,0-0.95-6.48-1.69-19.44l13.11-12.36l17.5-16.93
			c-1.78-0.38-5.37-0.57-10.76-0.57l-5.391,8.09c-8.949-0.22-13.43-0.64-13.43-1.27V16.311z"/>
	</g>
	<g>
	</g>
</g>
<g id="XMLID_5_">
	<g>
		<path fill="#FFFFFF" d="M335.086,54.6c-8.079-0.409-12.109-0.97-12.109-1.689c-2.47-3.58-3.7-5.72-3.7-6.41v-2.01
			c0-0.221,0.11-0.33,0.33-0.33l-0.33-0.7c0-2.1-0.11-9.17-0.33-21.19c3.18-5.15,5.08-7.73,5.71-7.73c3.04-0.22,5.61-0.33,7.72-0.33
			h2.391c0.22,0,2.01,2.69,5.38,8.06c-0.22,1.97-0.33,3.09-0.33,3.36c0,16.38-0.69,24.57-2.06,24.57
			C336.717,52.23,335.826,53.691,335.086,54.6z M326.017,51.56c0.819,0.221,1.819,0.33,2.99,0.33h4.729c0.33,0,1.45-1.689,3.37-5.06
			v-2.34c0-5.04,0.11-12.21,0.33-21.53c-2.09-3.77-3.43-5.91-4.03-6.4c-3.149,0.22-5.85,0.32-8.09,0.32
			c-1.62,2.88-2.96,4.8-4.03,5.76c0.221,8.1,0.33,13.94,0.33,17.5v6.36C323.586,49.871,325.057,51.56,326.017,51.56z"/>
		<path fill="#2E3192" d="M347.536,18.24h0.66v-0.66C347.757,17.641,347.536,17.86,347.536,18.24z M343.517,23.291l3.689-4.39v-0.33
			c-1.689,1.4-2.93,2.75-3.689,4.07V23.291z M348.196,41.451c-3.81,3.149-5.71,5.51-5.71,7.069c1.45-1.18,3.35-3.3,5.71-6.369
			V41.451z M342.816,45.151c3.04-2.69,4.83-4.591,5.38-5.71v-1.36C344.606,41.51,342.816,43.861,342.816,45.151z M343.187,42.48
			c0-0.279,1.67-2.3,5.01-6.079c0-1.841,0.12-2.841,0.37-3h-0.37c-3.59,3.699-5.38,6.159-5.38,7.39v1.689H343.187z M343.187,28.67
			v1.69c3.34-3.75,5.01-6.22,5.01-7.4v-0.69C346.196,23.911,344.526,26.05,343.187,28.67z M343.187,33.401
			c2.05-2.471,3.72-4.38,5.01-5.75v-2.02h-0.33c-3.37,4.93-5.05,7.521-5.05,7.771H343.187z M343.187,37.43
			c3.34-3.21,5.01-5.45,5.01-6.739v-1.36c-3.34,3.149-5.01,5.51-5.01,7.07V37.43z M343.836,25.96c0-0.43,1.46-2.34,4.36-5.71v-0.98
			h-0.33c-2.52,3.28-3.97,5.41-4.35,6.36v0.33H343.836z M342.156,17.911c2.521-2.03,4.09-3.04,4.72-3.04l0.33,0.66
			c-2.41,1.31-3.87,2.44-4.39,3.37v0.37c0.46,0.55,0.7,0.98,0.7,1.31c2.729-2.68,4.3-4.02,4.68-4.02c0-1.24-0.67-2.25-2.01-3.04
			h-0.33c-0.49,0-1.95,1.35-4.36,4.06L342.156,17.911z M340.477,16.23h0.649c2.931-2.47,4.4-3.81,4.4-4.03l-1.03-0.7h-0.33
			c-2.68,2.14-4.02,3.37-4.02,3.7C340.366,15.67,340.477,16.01,340.477,16.23z M348.196,51.23c-2.3,1.971-5.33,5.221-9.08,9.73v0.37
			h0.33c0.79,0,3.71-2.91,8.75-8.75V51.23z M337.437,61.331l10.76-11.79v-2.01c-0.93,0.96-4.52,5.439-10.76,13.43V61.331z
			 M338.786,13.19v0.7c1.07,0,2.75-1.13,5.05-3.37c0-0.36-0.34-0.7-1.02-1.03C340.187,11.63,338.847,12.86,338.786,13.19z
			 M347.866,43.831c-7.5,8.96-11.649,14.79-12.45,17.5h0.33l12.45-15.48v-2.02H347.866z M337.437,11.17v0.33
			c0.05,0.47,0.28,0.7,0.689,0.7l4.36-3.74c-0.22,0-0.33-0.11-0.33-0.33L337.437,11.17z M334.066,61.331c0-0.46,0.56-1.36,1.68-2.71
			h-0.33c-0.33,0-1.109,0.78-2.34,2.34v0.37H334.066z M339.816,7.48c-2.19,1.17-3.88,2.41-5.05,3.69h1.31
			c2.82-2.24,4.51-3.36,5.05-3.36V7.48H339.816z M336.076,7.15c0,0.71-1.56,1.94-4.68,3.7v0.32h0.979
			c3.591-2.46,5.62-3.69,6.08-3.69V7.15H336.076z M329.706,60.96v0.37h2.021c1.72-2.49,2.95-3.73,3.689-3.73l-0.33-0.659
			C333.637,56.941,331.847,58.281,329.706,60.96z M319.937,6.78v-0.33h-0.33c0,0.36-0.78,1.26-2.34,2.71v0.33h0.319
			C317.586,9.22,318.366,8.311,319.937,6.78z M320.257,54.6c0-0.47-0.221-0.699-0.65-0.699c-2.69,2.189-4.03,3.42-4.03,3.699v0.37
			c0.061,0.431,0.271,0.65,0.66,0.65h0.33c0.3,0,1.53-1.23,3.69-3.69V54.6z M318.576,59.98c0-0.409,0.9-1.64,2.71-3.699v-0.7
			c-0.33,0-1.67,1.36-4.02,4.07l0.649,0.329H318.576z M323.296,9.49h0.7v-0.33h-0.7V9.49z M318.946,60.96l4.35-3.69v-0.659h-0.319
			c-0.55,0-1.891,1.34-4.03,4.029V60.96z M322.316,60.96c0-0.54,1.229-1.88,3.7-4.02h-1.36c-0.27,0-1.51,1.229-3.7,3.699v0.32
			H322.316z M316.236,45.151c-4.03,3.04-6.04,5.279-6.04,6.739c0.271,0,2.29-2.02,6.04-6.04V45.151z M310.526,30.361v0.33h0.33
			c3.15-2.63,4.72-4.081,4.72-4.36v-1.35C312.206,27.061,310.526,28.851,310.526,30.361z M336.076,12.53h-12.08
			c-0.46,0.16-2.819,2.85-7.06,8.05l0.33,1.69v3.69c0,0.69-0.11,1.03-0.33,1.03l0.33,1.68v7.07c0,0.489,0.1,0.95,0.319,1.359
			c-0.22,0.38-0.319,0.83-0.319,1.351v0.66c0,2.25,0.1,5.609,0.319,10.109l5.391,6.03c7.64,0.47,12.24,0.7,13.8,0.7
			c3.01-4.49,4.59-6.971,4.72-7.431c0.221-10.329,0.33-18.279,0.33-23.87v-0.7c0-0.77,0.11-1.77,0.33-3
			C340.597,18.19,338.566,15.38,336.076,12.53z M313.196,55.25l4.39-4.021c-0.22-0.47-0.319-0.81-0.319-1.029h-0.7
			c0,0.63-1.45,1.99-4.36,4.069v0.33c0.061,0.44,0.28,0.65,0.66,0.65H313.196z M314.546,56.941h0.7c0-0.381,1.23-1.73,3.7-4.03
			c0-0.33-0.34-0.67-1.03-1.021l-4.02,4.391C313.946,56.72,314.166,56.941,314.546,56.941z M310.196,49.22l6.04-5.76v-0.98h-0.66
			c-0.63,0.051-2.42,1.74-5.38,5.051V49.22z M315.246,21.94c0,0.38-1.569,1.96-4.72,4.72v0.99c2.74-2.47,4.42-3.7,5.05-3.7v-2.01
			H315.246z M311.507,53.901c2.989-2.9,4.67-4.36,5.06-4.36v-2.01h-0.33c-0.28,0.06-2.18,1.96-5.71,5.71L311.507,53.901z
			 M329.007,56.941h-0.98c-2.25,1.51-3.82,2.85-4.73,4.02v0.37h1.36C324.986,61.331,326.437,59.871,329.007,56.941z M332.046,6.78
			c0,0.79-1.34,2.26-4.02,4.39h0.33c0.63,0,2.87-1.23,6.729-3.69v-0.7H332.046z M310.856,40.14c0-0.359,1.68-2.04,5.05-5.06V34.06
			h-0.66c0,0.631-1.569,2.2-4.72,4.721c-0.22,0.38-0.33,0.84-0.33,1.359H310.856z M330.696,56.941c-0.33,0-1.67,1.34-4.03,4.02v0.37
			h2.021c0-0.57,1.01-1.93,3.04-4.061l-0.66-0.329H330.696z M322.646,9.82c-2.41,2.19-6.12,5.11-11.14,8.75l-0.65,1.03v0.32
			c6.62-5.28,10.66-8.65,12.12-10.1H322.646z M319.606,4.771l21.52,1.02c0.58,0,3.391,3.03,8.431,9.08
			c0.21,4.82,0.319,8.41,0.319,10.76v27.28c-2,2.58-5.13,5.819-9.399,9.74h-3.37c-0.22,0-0.33-0.11-0.33-0.33l-0.7,0.33h-16.47
			c-1.13,0-4.82-3.141-11.1-9.41l0.329-1.681v-4.359c0-11.01,0.221-21.89,0.66-32.66L319.606,4.771z M331.066,7.15
			c-2.88,1.83-4.56,3.18-5.05,4.02h0.319C329.486,8.71,331.066,7.371,331.066,7.15z M329.007,6.78c-1.78,0.9-3.79,2.48-6.03,4.72
			h0.649c3.431-2.46,5.341-4.04,5.75-4.72H329.007z M310.196,45.52c1.83-1.699,3.85-3.27,6.04-4.729l-0.33-4.021
			c-3.04,2.301-4.939,3.971-5.71,5.011v0.699c0.33,0,1.89-1.229,4.68-3.699c0.471,0.06,0.7,0.279,0.7,0.66
			c-3.83,2.739-5.75,4.76-5.75,6.079H310.196z M320.956,12.86c-6.3,5.15-9.449,7.85-9.449,8.09h0.369c4.03-3.37,6.261-5.05,6.7-5.05
			c0,0.22,0.12,0.33,0.37,0.33l2.34-3.37H320.956z M311.187,15.9h0.32c2.93-2.25,6.649-5.4,11.14-9.45h-0.7
			C314.767,12.451,311.187,15.601,311.187,15.9z M310.196,33.73c2.521-2.689,4.311-4.029,5.38-4.029v-1.68
			c-1.75,1.18-3.55,2.85-5.38,5.01V33.73z M325.316,6.451c-1.18,0-5.89,3.71-14.13,11.13h0.32l14.18-11.13H325.316z M316.566,18.24
			c-4.03,3.42-6.04,5.33-6.04,5.71v0.7h0.33c2.52-1.29,4.54-3.42,6.08-6.41H316.566z M315.906,30.03
			c-1.07,0.49-2.97,2.291-5.71,5.38v2.02h0.33c3.59-2.689,5.38-4.7,5.38-6.04V30.03z"/>
		<path fill="#FFFFFF" d="M317.586,1.07l27.24,0.7c0.96,1.39,4.11,5.43,9.45,12.12v41.36c-1.51,1.92-4.99,5.62-10.44,11.1
			c-2.619-0.22-4.529-0.33-5.71-0.33c-4.159,0-11.35-0.109-21.56-0.329l-11.1-11.421V12.53L317.586,1.07z M343.517,3.78
			c-13.01-0.22-20.98-0.33-23.91-0.33c-1.021,0-4.95,3.36-11.79,10.07v39.72c0.05,0.33,3.53,3.81,10.43,10.439h24.57
			c0.3,0,3.45-3.26,9.45-9.779V16.23c0-0.91-2.92-4.95-8.75-12.12V3.78z"/>
	</g>
	<g>
	</g>
</g>
<g>
	<path fill="#FFFFFF" d="M0,8.258c0-2.566,2.062-5.133,6.563-5.133c3.786,0,6.857,1.557,10.349,3.492
		c1.599-0.967,3.744-1.472,6.437-1.472c4.754,0,6.226,1.935,6.226,3.492c0,1.683-1.557,2.945-4.039,2.945
		c-2.903,0-5.89-1.43-8.498-2.861c-1.557,1.431-1.893,3.702-1.893,5.806c0,1.136,0.168,2.734,0.42,4.291
		c0.21,1.683,0.463,3.365,0.463,4.796c0,1.935,0,7.277-5.006,7.277c-0.504,0-1.43,0.084-1.43-0.925c0-0.883,0.799-0.883,1.43-0.883
		c2.482,0,3.155-2.104,3.155-5.469c0-1.304-0.294-2.945-0.463-4.543c-0.252-1.599-0.462-3.282-0.462-4.543
		c0-2.861,0.757-5.132,2.146-6.647C12.074,5.986,9.423,4.85,6.563,4.85c-3.071,0-4.67,1.557-4.67,3.408
		c0,1.388,1.304,2.818,2.987,2.818c0.168,0,0.883-0.126,1.009-0.126c0.505,0,0.968,0.294,0.968,0.799c0,1.01-1.22,1.094-1.977,1.094
		c-1.136,0-2.23-0.379-3.155-1.094C0.631,10.866,0,9.562,0,8.258z M23.348,6.911c-1.767,0-3.408,0.252-4.585,0.757
		c2.146,1.262,4.669,2.188,6.773,2.188c1.052,0,2.146-0.42,2.146-1.178C27.681,7.837,26.503,6.911,23.348,6.911z"/>
	<path fill="#FFFFFF" d="M30.078,29.881c-0.21-1.262-0.294-2.062-0.294-3.45c0-4.627,0.968-10.012,1.388-11.779
		c-0.294,0.042-0.757,0.042-1.136,0.042c-0.757,0-1.641,0.042-1.641-0.925c0-0.505,0.42-0.925,0.883-0.841h0.799
		c0.547,0,1.136-0.042,1.599-0.126c1.304-4.165,3.913-8.918,7.152-8.918c1.809,0,2.86,1.094,2.86,2.819
		c0,3.407-4.333,6.563-8.54,7.614c-0.378,1.515-1.051,4.501-1.556,8.54c1.262-4.207,3.828-6.773,6.1-6.773
		c3.324,0,3.366,4.417,3.366,6.226c0,3.492-0.883,6.941-1.01,7.32c-0.126,0.42-0.463,0.715-0.883,0.715
		c-0.547,0-0.968-0.462-0.968-0.925c0-0.084,0.042-0.168,0.042-0.252c0.337-1.304,0.926-4.165,0.926-6.857
		c0-3.197-0.547-4.291-1.599-4.291c-2.734,0-6.311,7.025-5.721,11.695c0.084,0.505-0.337,0.926-0.884,0.926
		C30.499,30.638,30.162,30.301,30.078,29.881z M33.738,12.338c3.281-1.136,6.1-3.576,6.1-5.637c0-0.631-0.294-1.094-1.052-1.094
		C37.271,5.607,35.042,8.384,33.738,12.338z"/>
	<path fill="#FFFFFF" d="M52.962,19.406c0-0.841-0.589-1.43-1.683-1.43c-2.103,0-5.09,2.692-5.09,7.193
		c0,1.431,0.462,3.997,3.491,3.997c1.094,0,2.23-0.505,2.945-1.388c0.168-0.21,0.379-0.336,0.673-0.336
		c0.505,0,0.841,0.42,0.841,0.967c0,0.799-2.019,2.482-4.585,2.482c-3.197,0-5.259-2.145-5.259-5.721c0-5.3,3.702-9.002,7.026-9.002
		c2.524,0,3.534,1.557,3.534,3.239c0,3.323-3.492,4.964-5.974,4.964c-0.505,0-0.926-0.336-0.926-0.883
		c0-0.463,0.378-0.883,0.926-0.925C50.859,22.519,52.962,21.299,52.962,19.406z"/>
</g>
<g>
	<g>
		<path fill="#FFFFFF" d="M39.689,28.998c-2.517-1.003,0.806-2.011,2.005-2.491c1.213-0.485,2.464-0.873,3.72-1.232
			c0.517-0.148,1.038-0.283,1.56-0.411c0.196-0.048,0.393-0.091,0.589-0.134c-0.412,0.089-0.05,0.013,0.04,0
			c0.695-0.096,1.852-0.446,2.028-1.26c0.177-0.814-1.061-0.913-1.569-0.842c-3.17,0.437-6.465,1.607-9.35,2.948
			c-2.219,1.031-5.764,3.667-1.864,5.22c0.825,0.329,1.806,0.156,2.548-0.314C39.845,30.196,40.517,29.327,39.689,28.998
			L39.689,28.998z"/>
	</g>
</g>
<g>
	<g>
		<path fill="#FFFFFF" d="M5.567,12.751c4.118-0.661,6.622-2.081,11.085-1.186c4.486,0.899,8.593,2.698,13.179,3.241
			c1.01,0.119,4.982-1.622,2.754-1.886c-5.449-0.645-10.456-2.931-15.88-3.716c-4.046-0.586-6.639,1.178-10.387,1.78
			C4.522,11.273,2.552,13.236,5.567,12.751L5.567,12.751z"/>
	</g>
</g>
<g id="XMLID_6_">
	<g>
		<path fill="#2E3192" d="M417.066,55.42c-0.9,2.771-1.57,4.45-2.01,5.05v0.7h1.359c0.33,0,0.761-0.56,1.311-1.68l-0.33-0.7v-3.37
			H417.066z M413.376,9.98v0.7h3.37c0.431,0,0.65-0.23,0.65-0.7v-2.67h-0.33C414.937,9.09,413.696,9.98,413.376,9.98z
			 M411.687,42.64c0.439,0,0.66-0.22,0.66-0.649v-0.37h-0.66V42.64z M411.687,29.17v0.7h0.33v-0.7H411.687z M411.356,61.17
			c0.61-0.3,1.61-2.22,3-5.75l1.689-1.69l0.37,0.7c-2.25,3.29-3.37,5.54-3.37,6.74h0.33c0.32,0,1.45-2.25,3.37-6.74
			c0.32,0,0.65-0.34,0.98-1.02l-2.01-0.33C414.097,54.991,412.646,57.691,411.356,61.17z M409.677,61.17
			c0.27,0,1.729-2.479,4.35-7.44c0.22,0,0.33-0.1,0.33-0.319v-0.33h-0.66C411.017,57.73,409.677,60.43,409.677,61.17z
			 M410.007,30.85l-1.03,1.36h0.37l0.989-1.36H410.007z M407.996,34.55v0.37h0.32c2.69-1.32,4.03-2.67,4.03-4.07l-0.66-0.33
			C411.687,31.02,410.456,32.361,407.996,34.55z M407.666,23.46h0.33c2.9-2.85,4.351-4.43,4.351-4.73l-0.33-0.65
			c0.22-0.44,0.33-0.78,0.33-1.03h-0.33c-0.271,0-1.4,1.12-3.37,3.37h0.33c0-0.28,0.68-0.84,2.06-1.69
			c0.431,0.06,0.65,0.29,0.65,0.7C409.007,21.38,407.666,22.72,407.666,23.46z M411.356,22.431c-2.46,2.66-3.69,4.12-3.69,4.4v0.65
			c3.12-2.63,4.681-4.42,4.681-5.38c-0.221-0.44-0.33-0.76-0.33-0.98c0.22,0,0.33-0.13,0.33-0.37h-0.33l-0.98,0.69l0.32,0.66V22.431
			z M407.666,39.6h0.33c1.17-1.56,2.511-2.79,4.021-3.689l0.33-2.021h-0.66C409.007,37.26,407.666,39.161,407.666,39.6z
			 M409.677,44.331c-1.341,1.5-2.011,2.63-2.011,3.37c0.271,0,1.051-1.13,2.341-3.37H409.677z M407.296,44.98h0.37
			c2.351-2.35,3.91-4.25,4.681-5.71v-2.34h-0.33c-0.44,0.061-0.66,0.28-0.66,0.66c0.22,0.44,0.33,0.78,0.33,1.03L407.296,44.98z
			 M407.296,30.19c3.36-2.98,5.051-4.77,5.051-5.38h-0.33c-3.09,2.69-4.67,4.25-4.721,4.69V30.19z M407.996,60.8h0.32
			c0.28,0,1.62-2.35,4.03-7.07v-0.319C411.057,54.8,409.606,57.27,407.996,60.8z M410.656,38.25c-2.24,2.08-3.36,3.54-3.36,4.39h0.7
			c0-0.27,0.88-1.609,2.66-4.02V38.25z M407.296,32.21c2.98-2.93,4.671-4.4,5.051-4.4v-0.66h-0.33c-2.3,2.47-3.87,3.7-4.721,3.7
			V32.21z M406.967,20.09v0.33c0.27,0,1.96-1.69,5.05-5.06v-0.98h-0.33C408.536,16.951,406.967,18.86,406.967,20.09z
			 M406.967,16.391v0.66h0.699c0-0.38,1.45-1.95,4.351-4.68v-1.03C411.746,11.34,410.057,13.021,406.967,16.391z M406.967,14.38
			h0.329c5.78-5.4,9.03-8.09,9.771-8.09V5.96h-2.01c0,0.27-1.9,2.06-5.71,5.38l-2.38,2.71V14.38z M406.967,9.65v0.33h0.329
			c0-0.27,0.561-1.16,1.681-2.67h-0.33L406.967,9.65z M406.967,12h0.329c1.971-2.17,4.211-4.18,6.73-6.04h-0.65
			C411.566,5.96,409.427,7.97,406.967,12z M406.307,60.8h0.33c2.189-4.03,4.09-7.05,5.71-9.08v-0.66
			C409.446,54.081,407.427,57.321,406.307,60.8z M407.666,51.72c-1.13,0.8-2.029,2.48-2.71,5.05v0.33h0.32
			c0-0.899,2.36-4.939,7.07-12.12l-0.33-0.649c0.22-0.44,0.33-0.78,0.33-1.03h-0.66C409.007,47.411,407.666,50.22,407.666,51.72z
			 M403.927,10.681h1.029l3.69-4.72h-1.351l-3.369,4.02V10.681z M412.017,47.371c-2.521,3.53-5.09,8.01-7.721,13.43h0.33
			c0.271,0,1.841-2.68,4.721-8.05c0.819-0.47,1.819-1.82,3-4.07v-1.31H412.017z M403.927,5.96c-0.33,0-0.66,0.34-0.99,1.02v0.33
			c0.33,0,0.78-0.45,1.359-1.35H403.927z M404.956,50.041c-1.18,3.64-2.069,6.11-2.67,7.39c0.65,1.021,0.98,1.7,0.98,2.061h0.66
			c-0.44-0.58-0.66-1.03-0.66-1.36c1.229-3.53,2.25-5.89,3.04-7.07c-0.221-0.46-0.33-0.8-0.33-1.02H404.956z M405.977,5.96
			c-1.181,0.33-2.3,1.67-3.37,4.02v0.37h0.33c0-1.26,1.12-2.61,3.37-4.06V5.96H405.977z M402.606,7.97c-0.46,0.05-0.7,0.29-0.7,0.7
			h0.7V7.97z M401.906,6.61c0.47,0,0.7-0.21,0.7-0.65h-0.7V6.61z M401.906,43.67c-1.06,0-2.189,2.57-3.36,7.72l0.7,0.33
			c0-1.72,0.88-3.63,2.66-5.71h0.7v0.33c-0.79,0.96-1.8,3.101-3.04,6.41c0.44,0.71,0.66,1.27,0.66,1.68h0.37
			c0-0.35,0.779-2.6,2.34-6.729h0.99v0.319c-0.771,1.07-1.66,3.771-2.67,8.101h0.649c1.021-4,2.03-6.48,3.05-7.44
			C403.606,46.791,402.597,45.121,401.906,43.67z M400.227,41.621l-3.37,7.06c0.47,0,0.7,0.34,0.7,1.03h0.66
			c0-2.14,1.01-4.49,3.04-7.07C401.257,42.31,400.906,41.97,400.227,41.621z M397.557,37.92c-1.811,3.04-2.71,5.28-2.71,6.74v0.319
			c1.699-1.89,3.05-3.899,4.069-6.029c-0.25-0.471-0.37-0.811-0.37-1.03H397.557z M395.546,46.01c0.44,0.55,0.65,1,0.65,1.36
			c0.28,0,1.51-2.36,3.7-7.07h-0.33C399.347,40.3,398.007,42.201,395.546,46.01z M394.187,43.3c0-1.229,1.01-3.35,3.04-6.37v-1.02
			c-0.9,0-2.03,2.24-3.37,6.729v0.66H394.187z M395.546,33.89c-1.479,2.63-2.5,5.101-3.039,7.4h0.649c1.43-4.03,2.55-6.04,3.37-6.04
			C396.196,34.34,395.876,33.89,395.546,33.89z M392.836,30.19l-2.67,7.07l0.65,0.33c2.03-3.81,3.04-6.16,3.04-7.07v-0.33H392.836z
			 M394.187,32.21l-2.71,7.06v0.33h0.7c0-1.39,1.01-3.64,3.04-6.729c0-0.44-0.23-0.66-0.7-0.66H394.187z M391.146,26.5
			c-0.66,0.27-1.67,2.63-3.04,7.06v0.33h0.37l3-7.39H391.146z M389.796,24.811c-1.399,2.85-2.289,5.1-2.67,6.74v0.66h0.65
			c0-1.51,0.91-3.75,2.71-6.74v-0.66H389.796z M391.847,28.181c-1.811,4.03-2.71,6.49-2.71,7.4l0.659,0.33
			c1.801-4.61,2.711-7.18,2.711-7.73H391.847z M388.807,23.13c0,0.55-1.12,2.23-3.37,5.05c0.17,1.34,0.51,2.01,1.03,2.01
			c1.229-3.09,2.229-5.23,3-6.4C389.467,23.351,389.246,23.13,388.807,23.13z M385.437,56.77c-0.33,0-0.78,0.46-1.351,1.36v0.33
			c0.74-0.69,1.301-1.03,1.681-1.03v-0.66H385.437z M387.776,21.121c-2.46,3.28-3.69,5.3-3.69,6.03l0.69,0.33h0.33
			c0-0.33,1.13-2.12,3.37-5.38c-0.25-0.44-0.37-0.76-0.37-0.98H387.776z M386.796,20.09c-1.76,2.93-2.989,4.39-3.699,4.39v0.33
			c0.05,0.44,0.27,0.66,0.66,0.66c0-0.66,1.229-2.34,3.689-5.05v-0.33H386.796z M383.427,61.5c0.33,0,1.109-0.79,2.34-2.38v-0.33
			h-0.33c-1.561,0.96-2.34,1.63-2.34,2.01v0.7H383.427z M385.106,16.72c-0.35,0-1.26,1.01-2.71,3.04v0.33
			c1.64-1.78,2.66-2.67,3.04-2.67v-0.7H385.106z M381.046,21.771c0.461,0,0.69-0.22,0.69-0.65h-0.69V21.771z M381.736,23.13
			l0.99,0.66c0-0.5,1.359-2.06,4.069-4.69c-0.22-0.46-0.329-0.8-0.329-1.02h-0.37C383.576,20.21,382.126,21.9,381.736,23.13z
			 M380.387,20.75c2.68-3.13,4.02-4.92,4.02-5.39v-0.32h-0.32C381.616,18.081,380.387,19.98,380.387,20.75z M382.066,58.13
			c0,0.22-0.67,1-2.01,2.34v0.33h0.33c0.85-0.49,1.63-1.38,2.34-2.67H382.066z M383.427,13.351c-0.36,0-1.82,1.58-4.4,4.73
			c0.22,0.43,0.33,0.78,0.33,1.02h0.7c0-0.57,1.229-2.15,3.7-4.72C383.536,13.911,383.427,13.57,383.427,13.351z M382.396,12
			c-0.771,0.41-2.11,2.09-4.021,5.05h0.32c2.03-2.9,3.37-4.36,4.03-4.36V12H382.396z M377.017,14.38l3.7-5.05
			c0-0.44-0.221-0.66-0.66-0.66l-3.7,4.68v0.33C376.416,14.15,376.637,14.38,377.017,14.38z M381.046,57.1
			c-2.22,1.87-3.329,2.88-3.329,3.04v0.33h0.979c0-0.6,1.13-1.72,3.37-3.37H381.046z M381.046,10.351l-3.329,4.69v1.02
			c2.159-3.15,3.5-4.72,4.02-4.72v-0.33C381.736,10.57,381.507,10.351,381.046,10.351z M377.717,56.77
			c-1.591,1.57-2.381,2.69-2.381,3.37h0.69c0.28,0,1.28-1.01,3-3.04L377.717,56.77z M375.007,21.121c-0.28,0-0.841,0.67-1.69,2.01
			v0.33c0.28,0,0.84-0.56,1.69-1.69V21.121z M373.977,20.75l1.03-2.02V18.4h-0.33c0,0.52-0.351,1.2-1.03,2.02v0.33H373.977z
			 M376.026,55.09c-0.3,0-1.42,1.58-3.37,4.72v0.33h0.99c0.27,0,1.29-1.34,3.04-4.02c-0.22-0.47-0.33-0.811-0.33-1.03H376.026z
			 M372.656,21.771v0.66h0.33v-0.66H372.656z M370.977,60.14l5.05-6.41V52.75h-0.37c0,0.38-1.56,2.74-4.68,7.06V60.14z
			 M370.606,29.871v0.32h0.37c2.47-3.99,3.7-6.13,3.7-6.4C374.156,23.84,372.796,25.871,370.606,29.871z M369.616,22.101
			c0-0.49,1.69-2.96,5.061-7.39c0-1.18,1.229-2.97,3.699-5.38l0.98-1.36v-0.33h-0.33c-1.28,0.74-4.53,4.78-9.73,12.12v2.34H369.616z
			 M369.616,18.081c0-0.96,1.8-3.43,5.391-7.4c0-0.52,0.67-1.53,2.01-3.04h-1.36l-6.36,9.08v1.36H369.616z M368.597,34.92h0.699
			c0.271-0.85,1.83-2.99,4.681-6.41l0.7-2.01C372.916,28.44,370.896,31.25,368.597,34.92z M373.977,30.19
			c-3.59,3.98-5.38,6.78-5.38,8.43h0.699c0.431-0.91,2.12-3.26,5.051-7.07v-1.36H373.977z M368.967,50.741h0.329
			c3.801-4.061,5.931-6.08,6.36-6.08V42.31C371.246,47.081,369.017,49.89,368.967,50.741z M368.967,15.041
			c3.8-4.66,5.71-7.12,5.71-7.4h-1.36c-0.22,0-1.67,2.01-4.35,6.04V15.041z M368.967,26.831h0.329c0-0.52,1.9-4,5.711-10.44v-0.33
			h-0.33c0,0.44-1.471,2.56-4.4,6.37c-0.87,1.59-1.31,2.71-1.31,3.37V26.831z M368.967,31.55c0.649-1.42,0.979-2.33,0.979-2.71
			c-0.9,0.22-1.35,1-1.35,2.34v0.37H368.967z M368.967,40.3v0.99c0.649-0.39,2.449-2.63,5.38-6.74v-0.99
			C374.097,33.56,372.307,35.81,368.967,40.3z M368.967,45.68l6.04-7.43c-0.221-0.33-0.33-1-0.33-2.021
			c-2.931,3.15-4.841,5.511-5.71,7.07V45.68z M368.967,48.02c3.39-3.529,5.52-5.989,6.369-7.39V39.6c-2.42,2.301-4.54,5-6.369,8.101
			V48.02z M375.336,46.01c-2.85,2.63-4.979,4.88-6.369,6.74v0.33c0.489,0,2.72-2.14,6.689-6.41v-0.66H375.336z M367.606,59.81h2.34
			c2.88-4.93,4.91-7.39,6.08-7.39v-1.68C375.396,50.741,372.597,53.76,367.606,59.81z M370.606,7.641c-0.33,0-1.44,1.45-3.33,4.36
			h1.32c2.02-1.89,3.04-3.35,3.04-4.36H370.606z M368.967,7.641c-0.301,0-1.66,1.45-4.07,4.36h1.36c0-0.28,0.899-1.62,2.71-4.03
			V7.641z M363.536,9.98c0.311,0,0.87-0.67,1.69-2.01v-0.33C364.106,7.97,363.536,8.75,363.536,9.98z M364.566,58.46
			c0.17-1.12,0.729-1.69,1.69-1.69v-0.319h-1.03c-0.49,0-0.82,0.56-0.99,1.68v0.33H364.566z M364.566,59.81v0.33h1.03l10.43-11.09
			v-0.7h-0.37c-4.46,4.11-6.689,6.25-6.689,6.41l0.329,0.66C367.427,56.43,365.856,57.901,364.566,59.81z M364.566,11.34
			c0-0.44,0.78-1.56,2.34-3.37v-0.33c-0.54,0.22-1.43,1.34-2.67,3.37v0.33H364.566z M363.906,61.831
			c-0.899-1.23-1.35-3.48-1.35-6.74l0.66-0.33l1.35,0.33c1.229-0.22,2.25-0.33,3.04-0.33v-0.33h-0.7v-0.7l0.7-0.979v-1.69
			c0-6.729-0.11-12.8-0.33-18.189l0.66-13.11c-0.13-1.29-0.22-2.53-0.271-3.73c-0.04-0.8-0.06-1.58-0.06-2.35
			c-0.22,0-0.33-0.11-0.33-0.33l-3.37,0.33h-1.02c-0.44,0-0.78-1.11-1.03-3.33c0-0.24,0.12-0.37,0.37-0.37l-0.37-1.68V6.98
			c0.08-0.46,0.32-0.69,0.7-0.69h12.12c2.02,0,3.93-0.22,5.71-0.66c0,0.71,0.5,1.53,1.47,2.45c0.29,0.56,0.62,1.1,0.96,1.63
			c0,0.01,0.02,0.01,0.02,0.02l23.141,38.29h0.66l-0.33-2.34c0-1.479-0.11-7.54-0.33-18.2l-0.37-1.31c0-0.25,0.13-0.37,0.37-0.37
			c-0.24-3.01-0.37-5.25-0.37-6.7V12h-2.34c-1.62,0-2.51-0.33-2.67-0.99V5.3c0.06-0.47,0.27-0.7,0.66-0.7h16.47
			c0.47,0.06,0.7,0.29,0.7,0.7v6.37c0,0.46-0.23,0.7-0.7,0.7h-2.34l-1.69-0.37v39.72l4.03,0.33h1.1c0,1.58-0.02,3.15-0.03,4.72
			h-0.039v5.71c-0.301,0.2-0.881,0.301-1.721,0.32c-0.01-0.02-0.04-0.04-0.08-0.05c-0.35-0.04-0.689-0.05-1.029-0.05
			c0.04-0.07,0.08-0.13,0.119-0.221h-6.039c-4.931,0-7.4-0.56-7.4-1.68l-22.22-37.34c-2.25-3.92-3.37-6.06-3.37-6.41h-0.66v2.05
			c0,0.22-0.11,0.33-0.33,0.33l0.33,0.66v2.34c0,3.59-0.23,7.19-0.7,10.799l0.37,0.66l-0.37,0.66c0.91,4.33,1.36,8.15,1.36,11.46
			v0.66c0,0.22-0.11,0.33-0.33,0.33l0.33,0.7v3.04c0,3.34,0.779,5.01,2.34,5.01c3.95-0.22,6.42-0.33,7.439-0.33l0.33,0.7v4.02
			l0.32,1.69c-0.6,0.55-1.939,0.87-4.02,0.979l-5.051-0.979l-0.659,0.33c-0.96-0.44-2.771-0.66-5.421-0.66h-1.319
			c-0.25,0-0.37-0.11-0.37-0.33c-0.66,0.22-0.99,0.44-0.99,0.66l-1.68-0.33h-2.34L363.906,61.831z"/>
		<path fill="#FFFFFF" d="M374.677,4.931c-7.591-0.22-11.971-0.33-13.15-0.33l-1.68,0.33v2.71c0,1.56,0.12,4.03,0.37,7.4l4.02-0.33
			c1.78,0.38,2.67,0.83,2.67,1.35v0.66c-1.12,0.85-1.68,3.31-1.68,7.39v1.03c0,15.419,0.34,24.51,1.03,27.28l-1.36,0.99h-3.37
			c-0.44,0-0.66,0.34-0.66,1.02l0.99,9.41c1.64-0.68,3.89-1.03,6.74-1.03h3.04c1.5,0,6,0.351,13.47,1.03c2.47,0,3.7-0.34,3.7-1.03
			c-0.221-3.75-0.33-6.659-0.33-8.75v-0.33h-5.05c-1.591,0.471-2.49,0.7-2.71,0.7h-0.66c-1.12,0-1.681-2.59-1.681-7.76h0.32
			c-0.32-0.71-0.65-2.27-0.979-4.68l0.329-2.391V24.11h0.33c1.67,1.07,5.601,7.36,11.79,18.86l12.12,20.87
			c3.69-0.22,6.49-0.33,8.37-0.33h4.4c0.22,0,0.45-0.17,0.67-0.479c0.02,0.029,0.05,0.06,0.1,0.06h0.92v0.09h2.67
			c-0.22-1.17-0.33-3.31-0.33-6.41h-0.04c0.011-1.569,0.03-3.14,0.03-4.72h0.01v-0.99h-0.659c-1.591,0-2.82-0.229-3.7-0.689
			c-0.24-5.26-0.37-9.18-0.37-11.75V27.48c0-3.31-0.11-7.79-0.33-13.43l0.7-0.37h6.04V5.3l-0.33-1.68h-20.87v9.4
			c0.22,0,0.33-0.11,0.33-0.33c2.93,0.17,4.399,0.5,4.399,0.99v2.38c0,8.08,0.33,17.05,0.98,26.91l-0.65,0.33
			c-12.29-19.4-19.5-30.58-21.64-33.55c0.05-0.03,0.09-0.1,0.04-0.17c-0.34-0.53-0.67-1.08-0.97-1.64
			c-0.03-0.22-0.57-1.01-1.59-2.37c-0.23-0.3-0.471-0.62-0.74-0.97C379.156,4.601,377.467,4.71,374.677,4.931z M359.517,64.871
			c0-1.23-0.33-4.38-0.99-9.45h0.33c-0.22-0.38-0.45-1.51-0.7-3.37l1.36-0.99h4.02c-0.43-2.52-0.649-4.54-0.649-6.08
			c0-2.729,0.109-9.569,0.33-20.5l-0.33-4.72c0.439-1.4,0.649-2.3,0.649-2.71h-0.319c-2.801,0.25-4.36,0.37-4.69,0.37
			c-0.46-0.58-0.7-1.03-0.7-1.36c0-2.35-0.109-5.94-0.319-10.76c0.21-1.81,0.56-2.71,1.02-2.71h19.85l2.011-0.33
			c0.85,0,3.76,4.15,8.75,12.45c7.01,10.6,11.27,17.33,12.77,20.21h0.7l-0.32-2.38v-1.36c0-0.66,0.101-0.99,0.32-0.99l-0.32-1.68
			c-0.25-7.59-0.38-11.97-0.38-13.15c-3.12-0.16-4.68-0.49-4.68-0.98V1.931c0.06-0.46,0.27-0.7,0.66-0.7h24.239
			c0.65,0,0.98,2.59,0.98,7.77v7.06h-6.69c0,4.93,0.221,15.81,0.65,32.62h1.69c1.67,0,2.56,0.34,2.67,1.03
			c0.239,7.5,0.369,12.56,0.369,15.16c-0.85,0.649-1.64,0.979-2.38,0.979h-18.489c-1.881-2.87-4.78-7.71-8.7-14.51
			c-3.09-5.37-6.82-11.97-11.181-19.79h-0.329v6.7c0,2.24,0.109,5.61,0.329,10.1h-0.329l0.329,0.7v2.67h8.75
			c0.261,0,0.521,0.19,0.771,0.58c0.08,0.13,0.17,0.28,0.25,0.45c0.22,4.979,0.33,9.02,0.33,12.12v0.33
			c0,0.43-0.22,0.649-0.66,0.649h-5.71l-2.05,0.33c-4.82-0.66-8.74-0.979-11.75-0.979h-2.01c-1.181,0-4.221,0.319-9.12,0.979
			l-0.33-0.66V64.871z"/>
	</g>
	<g>
	</g>
</g>
<g id="XMLID_7_">
	<g>
		<path fill="#2E3192" d="M471.656,15.53h0.33c1.59-0.55,2.38-1.1,2.38-1.64l-0.7-0.37c-0.76,1.12-1.43,1.68-2.01,1.68V15.53z
			 M472.356,12.53c-2.49,1.83-3.74,2.83-3.74,3l0.7,0.37h0.33c0.27,0,1.29-1.01,3.04-3.04v-0.33H472.356z M470.307,10.851l-3,3.36
			l0.649,0.33c1.4-0.68,2.63-1.7,3.7-3.04L470.307,10.851z M469.977,52.581c-1.4,0-2.41,1.13-3.04,3.37
			c2.13-1.59,3.49-2.38,4.06-2.38v-0.33C470.996,52.8,470.656,52.581,469.977,52.581z M465.946,12.86l0.66,0.33
			c0.3,0,1.31-1.02,3.04-3.04V9.49h-0.33L465.946,12.86z M463.606,61.991h0.66c1.56,0,3.91-1.57,7.06-4.721h-0.33
			C466.066,60.25,463.606,61.831,463.606,61.991z M465.286,11.831c2-1.12,3-2.24,3-3.37l-0.979-0.65c-0.36,0.63-1.37,1.75-3.04,3.36
			C464.946,11.17,465.286,11.391,465.286,11.831z M464.597,7.811c0,0.43-0.9,1.56-2.67,3.36h0.319c1.4-0.68,2.63-1.69,3.7-3.04
			v-0.32H464.597z M461.557,38.781v-0.7c-0.44,0.06-0.66,0.29-0.66,0.7H461.557z M461.227,61.991
			c7.06-3.971,10.99-6.431,11.79-7.391c0-0.359-0.351-0.699-1.03-1.029l-11.75,8.42H461.227z M462.246,7.811
			c-1.75,2.02-2.87,3.04-3.359,3.04v0.65c1.229,0,2.8-1.23,4.72-3.69H462.246z M459.866,41.451h1.36l1.02-0.66
			c-0.22-0.38-0.319-0.83-0.319-1.35C461.566,39.441,460.876,40.111,459.866,41.451z M458.557,40.791c2-3.25,3-4.94,3-5.05h-0.66
			c0,0.439-0.91,1.67-2.71,3.7v1.35H458.557z M459.206,25.63c-0.489,0-1.05,1.02-1.68,3.04
			C458.046,28.67,458.606,27.661,459.206,25.63z M460.236,32.701l-2.05,3.37v0.33h0.37c0-0.28,0.67-1.511,2.01-3.7H460.236z
			 M456.536,61.661h1.32c1.07,0,3.54-1.57,7.43-4.72h-1.68c-4.33,2.68-6.68,4.02-7.07,4.02V61.661z M457.526,25.63h-0.33v0.7h0.33
			V25.63z M456.166,35.741h0.7c2.9-3.48,4.36-5.83,4.36-7.07C460.896,28.73,459.206,31.09,456.166,35.741z M455.847,11.5h1.35
			c0.271,0,1.51-1.23,3.7-3.69l-0.66-0.33h-1.03C457.646,8.76,456.526,10.11,455.847,11.5z M455.847,7.48l-3.04,4.02h1.35
			c0.41,0,1.42-1.23,3.04-3.69V7.48H455.847z M452.477,36.071h1.68c1.23-0.96,3.59-4.091,7.07-9.41v-0.7h-0.99
			c-0.96,3.62-3.55,6.77-7.76,9.45V36.071z M456.536,57.27c-1.689,0.521-3.27,1.87-4.72,4.061h3.04c3.86-2.71,6.09-4.061,6.7-4.061
			v-0.329h-0.33c-1.73,0-4.19,1.229-7.4,3.699h-0.33v-0.66c0-0.52,1.13-1.319,3.37-2.38v-0.33H456.536z M450.456,12.201
			c1.761-1.42,2.99-2.78,3.7-4.07V7.48c-0.79,0.54-2.03,2-3.7,4.35V12.201z M455.847,31.02c-1.07,0-2.98,1.681-5.721,5.051h0.33
			c3.59-2.9,5.391-4.46,5.391-4.681V31.02z M448.446,12.201c0.44,0,1.67-1.35,3.7-4.07V7.48h-1.36c-0.22,0-1.109,1.34-2.67,4.02v0.7
			H448.446z M452.477,31.39c-0.22,0-1.67,1.67-4.36,5.011h0.66c0-0.28,1.34-1.95,4.03-5.011H452.477z M447.416,56.941l-2.01,3.039
			v0.33h0.7l3-2.71l0.33,0.69l-1.65,2.02v0.33h0.33c2.141-1.779,3.59-2.67,4.36-2.67c-1.13,1.561-2.021,2.34-2.67,2.34v0.65h0.649
			c1.511-1.12,2.521-2.24,3.04-3.36c-0.22,0-0.56-0.109-1.02-0.33l-1.69,0.33L447.416,56.941z M443.727,20.581
			c0.35,0,0.8-0.44,1.35-1.31V18.9h-0.66c0,0.35-0.229,0.81-0.689,1.35V20.581z M446.106,55.25c-0.3,0-1.55,1.69-3.74,5.06h1.36
			l3.04-3.699c-0.221-0.381-0.33-0.841-0.33-1.36H446.106z M444.416,21.28c0,0.55-0.449,1.33-1.35,2.34v0.33
			c0.85-1.12,1.52-1.68,2.01-1.68v-0.99H444.416z M441.057,60.31c2.46-3.369,4.14-5.51,5.05-6.409v-0.33h-0.37
			C442.616,57.21,441.057,59.46,441.057,60.31z M441.706,16.561c-1.779,2.3-2.67,4.2-2.67,5.71v0.37h0.33
			c4.03-5.92,6.04-9.4,6.04-10.44c1.4,0,2.63-1.46,3.7-4.39V7.48h-0.33c-0.86,1.34-2,2.91-3.41,4.69
			C444.307,13.51,443.086,14.97,441.706,16.561z M439.696,17.911c0-0.9,2.57-4.16,7.72-9.78V7.48h-0.979
			c-2.82,2.95-5.18,6.09-7.07,9.4v1.03H439.696z M444.046,23.951c0,0.3-1.119,2.22-3.359,5.75v0.33c0.46-0.16,1.82-2.19,4.06-6.08
			H444.046z M438.666,14.541c0.061,0.44,0.29,0.66,0.7,0.66l5.05-7.39h-1.35l-4.4,6.08V14.541z M438.666,26.661h0.7
			c0-0.57,1.9-3.94,5.71-10.1v-0.33h-0.33C440.696,21.791,438.666,25.271,438.666,26.661z M445.406,46.18
			c-4.25,3.8-6.49,6.271-6.74,7.391h0.37c0.28,0,2.51-2.25,6.7-6.74v-0.65H445.406z M439.036,31.71c0-0.3,0.33-1.2,0.99-2.71
			c-0.91,0.33-1.36,0.67-1.36,1.03v1.68H439.036z M439.036,48.191c2.851-2.851,4.971-5.311,6.37-7.4V39.77
			C442.557,42.291,440.437,45.09,439.036,48.191z M439.036,45.85c3.4-4.109,6.53-8.6,9.41-13.479c0.9-0.33,1.36-0.66,1.36-0.98
			v-0.37c-1.07,0.051-4.33,3.641-9.78,10.761c-0.91,0.79-1.36,1.699-1.36,2.71v1.359H439.036z M439.036,51.23
			c1.78-1.51,3.91-3.75,6.37-6.739V42.48h-0.33c0,0.44-1.79,2.681-5.38,6.74C439.257,49.93,439.036,50.6,439.036,51.23z
			 M439.036,41.451l8.05-9.74v-0.32h-0.649c-2.82,2.57-5.41,5.931-7.771,10.061H439.036z M439.036,38.451
			c3.7-4.71,5.71-7.061,6.04-7.061v-1.029c0-0.44-0.22-0.66-0.66-0.66c-3.83,4.41-5.75,7.33-5.75,8.75H439.036z M439.036,35.081
			h0.33c0.44-1.37,2.23-3.61,5.38-6.73v-1.69h-0.7l-5.01,8.05V35.081z M437.687,60.31h1.35c4.03-5.149,6.26-7.729,6.7-7.729v-1.68
			C444.116,52.191,441.437,55.321,437.687,60.31z M440.687,7.811c-1.95,1.86-3.061,3.32-3.33,4.39h1.31c0.301,0,1.32-1.46,3.04-4.39
			H440.687z M434.316,58.291c0.27,0,0.83-0.561,1.68-1.68h-0.7c-0.319,0-0.649,0.33-0.979,0.989V58.291z M434.977,60.31
			c1.28,0,4.2-3.029,8.75-9.08c0.74-0.689,1.41-1.029,2.01-1.029v-0.98c0-0.47-0.22-0.7-0.66-0.7c-4.02,4-6.04,6.351-6.04,7.061
			c0,0.74-0.68,1.189-2.05,1.36l-2.34,3.039v0.33H434.977z M434.977,12.53c0.84-0.16,2.2-1.74,4.06-4.72h-0.37
			c-0.76,0.57-2,2.04-3.689,4.39V12.53z M434.977,10.851c0-0.28,0.67-1.29,2.01-3.04h-0.66c0,0.32-0.56,1.23-1.68,2.71v0.33H434.977
			z M434.977,7.811c-0.771,0.38-1.33,1.05-1.69,2.01l0.7,0.33c0-0.44,0.44-1.22,1.31-2.34H434.977z M433.616,61.991
			c-0.439-1.45-0.88-3.351-1.31-5.71l0.649-1.351l1.69,0.32l2.34-0.32c0,0.221,0.12,0.32,0.37,0.32v-0.32
			c0-0.439-0.23-0.66-0.7-0.66c0.41,0,0.75-2.59,1.03-7.77c-0.22-7.17-0.33-11.32-0.33-12.44c0-2.8,0.22-7.399,0.66-13.81
			c-0.221-1.61-0.33-3.74-0.33-6.36c-0.22,0-0.33-0.13-0.33-0.37l-3.37,0.37h-1.03c-0.439,0-0.779-1.13-1.02-3.37l0.37-0.7
			c-0.471-1.07-0.7-2.08-0.7-3.04c0.46-0.22,0.8-0.33,1.02-0.33c8.141,0,13.86-0.22,17.181-0.66c1.229,0.22,2.229,0.33,3,0.33h3.359
			c8.99,0,13.48,0.56,13.48,1.69l7.39,7.06c-0.96,0.8-3.64,1.81-8.05,3.04c-2.24-2.68-3.93-4.48-5.05-5.38l-1.69,0.33h-9.08v0.07
			c-0.34,0.11-0.68,0.21-1.04,0.24c-0.029,0.01-0.05,0.01-0.08,0.01c-0.01,0-0.01,0.01-0.02,0.01h-3.91l-1.68,0.33
			c-0.22,5.67-0.33,9.81-0.33,12.44v0.37c0,0.5,0.11,0.93,0.33,1.32c-0.22,0.41-0.33,0.86-0.33,1.35v0.7h7.06v-0.05h0.41
			c0.05,0,0.08-0.03,0.101-0.06c0.02,0,0.04,0,0.06,0c0.67-0.01,1.33-0.1,2-0.2c0.07-0.01,0.09-0.06,0.08-0.11
			c0.229-0.09,0.35-0.29,0.35-0.61l-0.319-4.02l0.689-0.37c4.03,0,6.04,0.34,6.04,1.03v7.39c0,1.479,0.34,4.399,1.03,8.75l-0.33,1.5
			c-0.24,0.069-0.48,0.14-0.73,0.18l-1.649-0.32h-4.03c-0.46-3.81-0.92-5.71-1.35-5.71c-5.84,0.54-8.75,1.33-8.75,2.341
			c0,11.01,0.56,16.51,1.68,16.51h4.36c8.979,0,13.47-0.561,13.47-1.681c0-1.119,0.9-2.699,2.71-4.729c2.47,2.25,4.82,3.7,7.07,4.36
			v0.369c-4.91,5.641-7.71,8.671-8.42,9.08h-4.4c-0.22,0-0.33-0.109-0.33-0.33l-0.66,0.33c-4.489-0.22-7.51-0.33-9.08-0.33v-0.369
			c-0.239,0-0.359,0.119-0.359,0.369c-1.181-0.47-5.44-0.92-12.78-1.359c-0.22,0-0.33,0.109-0.33,0.33l-1.68-0.33h-1.03
			L433.616,61.991z"/>
		<path fill="#FFFFFF" d="M450.456,45.52l0.33,0.66v1.021c0,1.1,0.11,2.77,0.33,5.01c2.25-0.21,3.93-0.32,5.05-0.32h5.761
			c1.77,0,3.01-2.02,3.689-6.04v-0.33h-0.33c-2.979,0-6.689,0.33-11.13,0.98l-0.66-0.98v-3.04h-2.01l-0.7-0.329
			c0,0.439-0.109,0.659-0.33,0.659l0.33,0.65v1.69C450.786,45.401,450.677,45.52,450.456,45.52z M439.696,65.361
			c-2.46,0-5.72,0.449-9.78,1.359c-0.439-1.92-1-6.189-1.68-12.819h0.37l-0.37-0.66v-1.03c0.05-0.43,0.29-0.65,0.7-0.65h2.34
			l2.34-0.33c-0.439-0.96-0.66-2.75-0.66-5.38v-6.08c0-4.55,0.11-9.369,0.33-14.459c-0.22-1.29-0.33-3.08-0.33-5.39
			c0.221-1.23,0.33-2.13,0.33-2.71l-4.02,0.37h-0.33c-0.36,0-0.7-0.34-1.03-1.02c-0.22-5.89-0.33-10.26-0.33-13.11
			c0.851-0.68,1.86-1.03,3.04-1.03c3.92,0,7.96,0.11,12.12,0.33l27.24-0.98c0.52,0,4.56,4.26,12.12,12.77v0.66
			c0,1.23-4.15,3.82-12.45,7.76h-1.03c-3.64-4.49-6.439-6.73-8.38-6.73l-7.43-0.7c-1.57,0.3-2.351,0.64-2.351,1.03v10.1h2.71
			l-0.359-3.37v-1.68c0-0.63,2.47-1.08,7.43-1.36c4.03,0,6.04,1.58,6.04,4.73h-0.33l0.33,0.65v13.48c0,0.22-0.11,0.33-0.33,0.33
			c0.49,4.05,0.82,6.079,0.99,6.079c8.43,2.79,13.49,5.82,15.16,9.08c0,0.49-3.25,4.08-9.74,10.761c-0.14,0.55-0.93,1.109-2.38,1.68
			c-4.141-0.21-7.62-0.32-10.44-0.32h-2.01c-0.49,0-0.95-0.13-1.36-0.37c-0.22,0-0.319,0.12-0.319,0.37
			c-7.62-0.91-12.67-1.359-15.16-1.359H439.696z M430.286,14.871h3.7c1.67,0,2.56,0.34,2.67,1.03v0.98
			c-0.899,0.96-1.36,2.76-1.36,5.39v16.18c0,1.779,0.131,4.14,0.37,7.069l-0.37,0.66c0.471,3.2,0.7,5.45,0.7,6.73l-1.02,0.66h-3.7
			l-0.66,0.33c0.22,2.409,0.44,3.869,0.66,4.39c0,0.22-0.11,0.33-0.33,0.33l0.99,5.38c1.2-0.43,2.1-0.65,2.71-0.65v0.33
			c0.43-0.22,0.78-0.33,1.02-0.33c1.46,0,2.91-0.109,4.36-0.33c1.61,0.221,3.64,0.33,6.08,0.33h0.33c0.22,0,0.33,0.11,0.33,0.33
			c0.21,0,0.319-0.109,0.319-0.33c4.99,0.65,8.36,0.98,10.11,0.98h8.42l4.03,0.37c5.45-5.561,8.58-8.931,9.41-10.101
			c0-1.239-3.811-3.37-11.42-6.409v0.329c-1.65,3.83-2.771,5.75-3.37,5.75h-4.03c-2.35,0-5.96,0.11-10.8,0.33
			c-0.44-0.739-0.66-1.3-0.66-1.689c0-0.74-0.11-4-0.33-9.771l-1.03-1.689c0.36-0.88,0.7-1.311,1.03-1.311h6.41
			c0.33,0,0.66,0.33,0.99,0.98v3.04c2.68-0.46,4.359-0.8,5.05-1.021c0.439,0.221,0.78,0.32,1.03,0.32h0.649v-0.09
			c0.271-0.04,0.51-0.11,0.771-0.19c0.01,0,0.029-0.01,0.04-0.01c0.029,0,0.04-0.02,0.05-0.03h0.17l0.66-0.33
			c-0.221-0.909-0.44-3.26-0.66-7.069c0.22-4.49,0.33-8.42,0.33-11.79c-1.18-0.66-3.88-0.99-8.09-0.99h-0.66v0.33
			c0.2,3.32,0.31,5.27,0.32,5.89c-0.591,0.09-1.181,0.18-1.78,0.18c-0.23,0-0.47-0.02-0.7-0.05l-1.91-0.31
			c-0.82,0.22-1.71,0.33-2.67,0.33c-0.439-0.71-0.66-1.38-0.66-2.01v-9.74c0-2.71,0.78-4.06,2.34-4.06h2.021v-0.11
			c0.36-0.02,0.7-0.11,1.04-0.22c2.149,0,3.27,0.11,3.35,0.33l0.66-0.33c5.67,0,9.71,2.46,12.12,7.39c5.61-2.85,8.86-4.75,9.74-5.71
			c0-0.44-3.36-4.02-10.07-10.76c-0.25,0-0.37,0.11-0.37,0.33l-1.31-0.33c-4.91,0-12.771,0.34-23.58,1.03h-4.69
			c-1.8,0-3.939-0.13-6.41-0.37c-0.22,0.24-1.119,0.37-2.71,0.37v5.71L430.286,14.871z"/>
	</g>
	<g>
	</g>
</g>
</svg>
